<?xml version="1.0" encoding="UTF-8" standalone="no"?>
<!-- Created with Inkscape (http://www.inkscape.org/) -->

<svg
   xmlns:dc="http://purl.org/dc/elements/1.1/"
   xmlns:cc="http://creativecommons.org/ns#"
   xmlns:rdf="http://www.w3.org/1999/02/22-rdf-syntax-ns#"
   xmlns:svg="http://www.w3.org/2000/svg"
   xmlns="http://www.w3.org/2000/svg"
   xmlns:sodipodi="http://sodipodi.sourceforge.net/DTD/sodipodi-0.dtd"
   xmlns:inkscape="http://www.inkscape.org/namespaces/inkscape"
   id="svg2"
   version="1.1"
   inkscape:version="0.91 r13725"
   xml:space="preserve"
   width="2973.175"
   height="989.125"
   viewBox="0 0 2973.175 989.125"
   sodipodi:docname="black_white_gray.svg"
   inkscape:export-filename="/home/skorzun/Документы/prostir/black_white_gray.svg.png"
   inkscape:export-xdpi="238"
   inkscape:export-ydpi="238"><metadata
     id="metadata8"><rdf:RDF><cc:Work
         rdf:about=""><dc:format>image/svg+xml</dc:format><dc:type
           rdf:resource="http://purl.org/dc/dcmitype/StillImage" /><dc:title /></cc:Work></rdf:RDF></metadata><defs
     id="defs6" /><sodipodi:namedview
     pagecolor="#ffffff"
     bordercolor="#666666"
     borderopacity="1"
     objecttolerance="10"
     gridtolerance="10"
     guidetolerance="10"
     inkscape:pageopacity="0"
     inkscape:pageshadow="2"
     inkscape:window-width="1680"
     inkscape:window-height="974"
     id="namedview4"
     showgrid="false"
     inkscape:zoom="0.18978742"
     inkscape:cx="517.30675"
     inkscape:cy="1106.7475"
     inkscape:window-x="0"
     inkscape:window-y="24"
     inkscape:window-maximized="1"
     inkscape:current-layer="g10" /><g
     id="g10"
     inkscape:groupmode="layer"
     inkscape:label="ink_ext_XXXXXX"
     transform="matrix(1.25,0,0,-1.25,0,989.125)"><g
       id="g12"
       transform="scale(0.162168,0.162168)"><path
         d="m 10517.8,3158.45 0,-1827.61 -443.5,0 0,1829.66 -491.32,0 0,388.2 1429.82,0 0,-390.25 -495,0"
         style="fill:#1a1a1a;fill-opacity:1"
         id="path14"
         inkscape:connector-curvature="0" /><path
         d="m 2665.52,3549.96 0,-2220.37 -443.96,0 0,1830.5 -887.24,0 0,-1830.5 -445.519,0 0,2220.37 1776.719,0"
         style="fill:#1a1a1a;fill-opacity:1"
         id="path16"
         inkscape:connector-curvature="0" /><path
         d="m 3549.88,2524.61 165.73,0 c 83.18,0 189.75,0 282.95,69.96 79.91,63.27 119.8,163.15 119.8,259.67 0,123.17 -59.9,206.4 -123.13,252.97 -89.87,63.32 -203.04,69.92 -306.23,69.92 l -139.12,0 0,-652.52 z m 202.33,1025.35 c 249.71,0 422.78,-26.66 585.88,-169.8 179.75,-159.78 226.37,-376.19 226.37,-535.97 0,-86.47 -13.33,-326.17 -183.07,-495.96 -123.18,-123.17 -306.28,-196.44 -562.59,-196.44 l -268.92,0 0,-822.2 -443.49,0 0,2220.37 645.82,0"
         style="fill:#1a1a1a;fill-opacity:1"
         id="path18"
         inkscape:connector-curvature="0" /><path
         d="m 9139.06,1409.5 c -133.07,-69.86 -309.56,-129.86 -549.25,-129.86 -389.53,0 -625.83,133.14 -812.24,309.61 -256.34,246.39 -356.18,522.61 -356.18,848.91 0,402.75 166.43,692.35 356.18,868.77 223.04,209.78 499.29,292.96 815.51,292.96 156.51,0 342.98,-26.65 545.98,-136.49 l 0,-506.01 c -203,233.06 -456.07,249.71 -535.93,249.71 -446.14,0 -735.72,-366.19 -735.72,-775.63 0,-492.67 379.55,-759.03 752.37,-759.03 206.45,0 389.47,89.88 519.28,243.02 l 0,-505.96"
         style="fill:#1a1a1a;fill-opacity:1"
         id="path20"
         inkscape:connector-curvature="0" /><path
         d="m 11456.7,1329.59 443.492,0 0,2220.37 -443.492,0 0,-2220.37 z"
         style="fill:#1a1a1a;fill-opacity:1"
         id="path22"
         inkscape:connector-curvature="0" /><path
         d="m 12787.5,2524.61 165.7,0 c 83.2,0 189.7,0 283,69.96 79.9,63.27 119.8,163.15 119.8,259.67 0,123.17 -59.9,206.4 -123.2,252.97 -89.9,63.32 -203,69.92 -306.2,69.92 l -139.1,0 0,-652.52 z m 202.3,1025.35 c 249.7,0 422.8,-26.66 585.9,-169.8 179.8,-159.78 226.4,-376.19 226.4,-535.97 0,-86.47 -13.3,-326.17 -183.1,-495.96 -123.2,-123.17 -306.2,-196.44 -562.6,-196.44 l -268.9,0 0,-822.2 -443.5,0 0,2220.37 645.8,0"
         style="fill:#1a1a1a;fill-opacity:1"
         id="path24"
         inkscape:connector-curvature="0" /><path
         d="m 5769.97,2436.93 c 0,0.94 -0.13,1.87 -0.13,2.79 0,123.97 100.5,224.57 224.5,224.57 123.98,0 224.47,-100.6 224.47,-224.57 0,-123.43 -99.74,-223.62 -223.05,-224.37 l 0,-303.1 c 290.7,0.79 526.13,236.6 526.13,527.47 0,291.37 -236.24,527.57 -527.55,527.57 -291.36,0 -527.55,-236.2 -527.55,-527.57 0,-0.92 0.12,-1.85 0.12,-2.79 l 303.06,0"
         style="fill:#1a1a1a;fill-opacity:1"
         id="path26"
         inkscape:connector-curvature="0" /><path
         d="m 6771.63,2821.1 c 56.55,-115.11 88.37,-244.48 88.37,-381.37 0,-478.82 -388.24,-867.01 -867.07,-867.01 -478.86,0 -867.06,388.19 -867.06,867.01 0,461.59 360.83,838.9 815.75,865.41 l 216.23,331.08 c -53.97,7.4 -108.96,11.56 -164.92,11.56 -667.2,0 -1208.01,-540.85 -1208.01,-1208.05 0,-667.12 540.81,-1207.97 1208.01,-1207.97 667.21,0 1208.01,540.85 1208.01,1207.97 0,260.15 -82.51,500.91 -222.42,698.1 L 6771.63,2821.1"
         style="fill:#1a1a1a;fill-opacity:1"
         id="path28"
         inkscape:connector-curvature="0" /></g><path
       style="fill:#1a1a1a;fill-opacity:1"
       d="m 180.49529,494.34266 0,-223.93476 179.14781,0 179.14781,0 0,223.93476 0,223.93476 -43.46969,0 -43.46969,0 0,-185.73412 0,-185.73413 -90.89117,0 -90.89116,0 0,185.73413 0,185.73412 -44.78696,0 -44.78695,0 0,-223.93476 z"
       id="path4158"
       inkscape:connector-curvature="0"
       transform="matrix(0.8,0,0,-0.8,0,791.3)" /><path
       style="fill:#1a1a1a;fill-opacity:1"
       d="m 630.99934,494.08402 0,-224.1934 90.23254,1.10383 c 87.94343,1.07582 90.74001,1.27246 110.23645,7.75104 40.20533,13.36006 69.9642,42.56148 84.34621,82.76625 7.77161,21.72539 9.63491,64.55767 3.87565,89.0898 -11.38758,48.50633 -44.35605,81.57463 -95.05314,95.34098 -10.36817,2.81539 -31.44427,4.76218 -61.25274,5.65786 l -45.44559,1.36556 0,82.65574 0,82.65574 -43.46969,0 -43.46969,0 0,-224.1934 z m 170.11993,-24.84453 c 47.74013,-24.39489 45.79969,-95.66446 -3.20432,-117.6906 -10.36744,-4.65991 -19.17049,-5.96451 -46.38601,-6.87434 l -33.59022,-1.12294 0,67.75652 0,67.75651 33.78317,-0.9232 c 31.4858,-0.86042 34.845,-1.46579 49.39738,-8.90195 z"
       id="path4160"
       inkscape:connector-curvature="0"
       transform="matrix(0.8,0,0,-0.8,0,791.3)" /><path
       style="fill:#1a1a1a;fill-opacity:1"
       d="m 1189.519,736.59012 c -26.903,-2.5748 -49.9455,-8.9404 -75.3971,-20.82878 -70.7837,-33.06291 -117.94177,-90.8184 -137.25817,-168.10295 -6.0467,-24.19272 -5.96684,-82.07526 0.14757,-106.9621 23.6972,-96.45222 99.9449,-169.08799 195.2085,-185.96124 16.6518,-2.9494 72.6242,-3.85186 72.6242,-1.17095 0,0.87884 -9.0813,15.48727 -20.1808,32.46316 l -20.1807,30.86527 -22.6303,4.2586 c -90.5316,17.03639 -152.5486,101.70661 -142.206,194.15016 4.5024,40.24329 21.1164,74.04285 51.1665,104.09294 33.2487,33.24868 67.4903,48.39444 114.5134,50.65162 35.1464,1.68707 58.9922,-3.15237 89.3887,-18.14122 42.6248,-21.01867 78.4804,-65.31183 91.292,-112.77502 8.85,-32.78679 5.7911,-79.75139 -7.1741,-110.14587 l -4.8419,-11.35112 20.5351,-31.5365 20.5351,-31.53651 10.9977,19.22146 c 28.9737,50.6396 38.9258,112.5801 27.2093,169.34707 -25.3195,122.67394 -138.2063,205.47732 -263.749,193.46198 z"
       id="path4162"
       inkscape:connector-curvature="0"
       transform="matrix(0.8,0,0,-0.8,0,791.3)" /><path
       style="fill:#1a1a1a;fill-opacity:1"
       d="m 1696.577,725.19021 c -49.4234,-8.11713 -81.6816,-24.52815 -119.4115,-60.74958 -33.5166,-32.17655 -52.4151,-63.34919 -63.9912,-105.55207 -8.3743,-30.53016 -8.3986,-98.39634 -0.046,-129.0918 12.2915,-45.1717 42.7788,-94.01331 74.0022,-118.5537 45.1322,-35.47224 89.1283,-49.74951 153.0047,-49.65193 39.6128,0.0605 59.2598,3.72177 91.0991,16.97649 l 19.5511,8.13913 0,48.63764 0,48.63764 -14.499,-11.8108 c -28.0213,-22.82596 -57.1993,-33.18375 -93.6217,-33.23437 -41.5933,-0.0578 -73.5298,13.07201 -102.9268,42.31563 -29.7108,29.55575 -45.1736,69.07077 -45.2849,115.7247 -0.1009,42.27416 12.0987,75.55967 38.1706,104.1451 54.4979,59.75193 153.0774,66.4352 207.0617,14.03786 l 11.1001,-10.77376 0,49.18769 0,49.18769 -14.0675,6.44031 c -35.9028,16.43684 -95.8007,23.27036 -140.1407,15.98813 z"
       id="path4164"
       inkscape:connector-curvature="0"
       transform="matrix(0.8,0,0,-0.8,0,791.3)" /><path
       style="fill:#1a1a1a;fill-opacity:1"
       d="m 1215.8643,571.2082 0,-29.24097 10.5726,-2.84693 c 12.6646,-3.41022 27.0545,-15.41105 31.5803,-26.33713 4.5597,-11.00808 2.1607,-35.36546 -4.3409,-44.07362 -24.0684,-32.23702 -73.0387,-24.04811 -83.1913,13.91143 l -3.1351,11.72168 -28.7596,0 -28.7596,0 1.1599,-13.98718 c 2.6464,-31.91166 27.5899,-65.81 60.0867,-81.65808 15.7435,-7.67781 19.2599,-8.35397 43.6063,-8.3849 25.3507,-0.0322 27.3409,0.3909 46.5908,9.9047 30.9669,15.30467 50.3197,40.33054 57.2944,74.08963 11.9064,57.62977 -30.5234,117.65886 -87.9328,124.40622 l -14.7717,1.73613 0,-29.24098 z"
       id="path4166"
       inkscape:connector-curvature="0"
       transform="matrix(0.8,0,0,-0.8,0,791.3)" /><path
       style="fill:#1a1a1a;fill-opacity:1"
       d="m 2043.1056,532.5433 0,-185.73413 -50.056,0 -50.056,0 0,-38.20064 0,-38.20063 143.5817,0 143.5817,0 0,38.1425 0,38.14251 -49.3974,0.71676 -49.3973,0.71676 -0.6765,185.0755 -0.6764,185.07549 -43.4519,0 -43.4519,0 0,-185.73412 z"
       id="path4168"
       inkscape:connector-curvature="0"
       transform="matrix(0.8,0,0,-0.8,0,791.3)" /><path
       style="fill:#1a1a1a;fill-opacity:1"
       d="m 2322.3654,494.34266 0,-223.93476 44.787,0 44.7869,0 0,223.93476 0,223.93476 -44.7869,0 -44.787,0 0,-223.93476 z"
       id="path4170"
       inkscape:connector-curvature="0"
       transform="matrix(0.8,0,0,-0.8,0,791.3)" /><path
       style="fill:none;fill-opacity:1"
       d="m 2504.1478,494.10464 0,-224.17278 88.9152,1.13279 c 95.9763,1.22275 104.3936,2.28338 132.9458,16.75184 28.1354,14.2573 53.6721,45.80708 64.176,79.28752 2.1805,6.95021 4.6294,23.30658 5.4419,36.34748 4.4655,71.67498 -31.7628,124.42752 -97.8412,142.46777 -10.4294,2.84735 -31.2684,4.78014 -61.2528,5.68112 l -45.4456,1.36556 0,82.65574 0,82.65574 -43.4696,0 -43.4697,0 0,-224.17278 z m 164.6579,-21.83176 c 52.0019,-22.41579 52.0019,-99.69219 0,-121.76639 -7.3012,-3.09928 -20.8557,-4.86615 -44.1283,-5.75225 l -33.5903,-1.27895 0,67.84162 0,67.84162 33.5903,-1.17156 c 23.8189,-0.83077 36.6557,-2.49296 44.1283,-5.71409 z"
       id="path4172"
       inkscape:connector-curvature="0"
       transform="matrix(0.8,0,0,-0.8,0,791.3)" /><path
       style="fill:none;fill-opacity:1"
       d="m 2504.1478,494.10464 0,-224.17278 88.9152,1.13279 c 95.9763,1.22275 104.3936,2.28338 132.9458,16.75184 28.1354,14.2573 53.6721,45.80708 64.176,79.28752 2.1805,6.95021 4.6294,23.30658 5.4419,36.34748 4.4655,71.67498 -31.7628,124.42752 -97.8412,142.46777 -10.4294,2.84735 -31.2684,4.78014 -61.2528,5.68112 l -45.4456,1.36556 0,82.65574 0,82.65574 -43.4696,0 -43.4697,0 0,-224.17278 z m 164.6579,-21.83176 c 52.0019,-22.41579 52.0019,-99.69219 0,-121.76639 -7.3012,-3.09928 -20.8557,-4.86615 -44.1283,-5.75225 l -33.5903,-1.27895 0,67.84162 0,67.84162 33.5903,-1.17156 c 23.8189,-0.83077 36.6557,-2.49296 44.1283,-5.71409 z"
       id="path4174"
       inkscape:connector-curvature="0"
       transform="matrix(0.8,0,0,-0.8,0,791.3)" /><path
       style="fill:#1a1a1a;fill-opacity:1"
       d="m 2504.1478,494.10464 0,-224.17278 88.9152,1.13279 c 95.9763,1.22275 104.3936,2.28338 132.9458,16.75184 28.1354,14.2573 53.6721,45.80708 64.176,79.28752 2.1805,6.95021 4.6294,23.30658 5.4419,36.34748 4.4655,71.67498 -31.7628,124.42752 -97.8412,142.46777 -10.4294,2.84735 -31.2684,4.78014 -61.2528,5.68112 l -45.4456,1.36556 0,82.65574 0,82.65574 -43.4696,0 -43.4697,0 0,-224.17278 z m 164.6579,-21.83176 c 52.0019,-22.41579 52.0019,-99.69219 0,-121.76639 -7.3012,-3.09928 -20.8557,-4.86615 -44.1283,-5.75225 l -33.5903,-1.27895 0,67.84162 0,67.84162 33.5903,-1.17156 c 23.8189,-0.83077 36.6557,-2.49296 44.1283,-5.71409 z"
       id="path4176"
       inkscape:connector-curvature="0"
       transform="matrix(0.8,0,0,-0.8,0,791.3)" /><path
       style="fill:#1a1a1a;fill-opacity:1"
       d="m 1108.4982,489.55022 c 0.9016,-15.39686 4.2548,-28.42169 10.7608,-41.79863 10.2314,-21.03648 27.2591,-38.18795 48.3003,-48.65139 6.4276,-3.19636 14.073,-6.23746 14.9479,-5.94582 0.2594,0.0865 -0.5573,0.54465 -1.8149,1.01824 -4.2662,1.60657 -12.5131,5.67669 -17.3779,8.57652 -15.1698,9.0426 -30.0132,23.78635 -39.0997,38.83727 -5.8434,9.679 -10.3662,21.00601 -12.1456,30.41727 -0.8248,4.36298 -2.3498,18.28457 -2.3556,21.50519 l -0,1.04787 28.8619,0 28.8618,0 0.6811,-2.44504 c 0.3746,-1.34478 1.0039,-3.49292 1.3984,-4.77366 0.5709,-1.85313 0.6763,-1.99578 0.5167,-0.69859 -0.1104,0.89652 -0.3418,3.14945 -0.5142,5.00652 l -0.3135,3.3765 -30.513,0 -30.513,0 0.3204,-5.47225 z"
       id="path4178"
       inkscape:connector-curvature="0"
       transform="matrix(0.8,0,0,-0.8,0,791.3)" /><path
       style="fill:#1a1a1a;fill-opacity:1"
       d="m 1215.4307,570.76999 0,-30.43731 3.3567,-0.28141 c 1.8462,-0.15478 3.4279,-0.21018 3.515,-0.12312 0.087,0.0871 -1.3187,0.52024 -3.1238,0.96262 l -3.2821,0.80432 0,29.53211 0,29.53211 1.0478,-0.22002 c 0.5764,-0.12101 3.2485,-0.45041 5.938,-0.73201 16.4831,-1.72575 25.6342,-4.07769 37.025,-9.51595 13.3182,-6.35844 24.4253,-14.83371 33.9225,-25.88458 13.6033,-15.82861 22.2723,-34.2092 25.6983,-54.48764 1.044,-6.17886 1.4115,-19.11241 0.7287,-25.63868 -2.092,-19.99389 -10.4928,-40.82308 -22.4268,-55.60571 -10.6149,-13.14868 -22.5856,-22.01371 -42.58,-31.53317 -13.0931,-6.23373 -14.5209,-6.49564 -36.9147,-6.77162 -16.3963,-0.20206 -19.3055,-0.0998 -29.1703,1.02521 -3.3264,0.37935 4.7707,-1.53923 10.1983,-2.41645 3.8179,-0.61707 7.7923,-0.82808 15.6017,-0.82834 12.1112,-4.1e-4 16.3718,0.49164 26.5027,3.06068 42.3047,10.72786 73.6995,46.13114 79.4614,89.60689 1.4706,11.09684 0.7947,26.05319 -1.6825,37.22569 -1.5463,6.97401 -5.043,16.78276 -8.4069,23.58289 -13.9733,28.2465 -38.9758,48.53291 -69.372,56.28677 -7.3111,1.865 -17.2334,3.29244 -22.8933,3.29346 l -3.1437,5.6e-4 0,-30.4373 z"
       id="path4180"
       inkscape:connector-curvature="0"
       transform="matrix(0.8,0,0,-0.8,0,791.3)" /><path
       style="fill:#1a1a1a;fill-opacity:1"
       d="m 1316.8276,526.75855 c 0,-0.0155 0.11,-0.37205 0.2443,-0.79241 1.0916,-3.41548 1.8796,-6.35361 2.4461,-9.12068 2.2104,-10.79564 2.8122,-24.6625 1.5282,-35.21621 -0.2091,-1.71891 -0.5496,-3.96751 -0.8647,-5.70999 -0.079,-0.43496 -0.143,-0.8113 -0.143,-0.83631 0,-0.0253 0.05,-0.0397 0.1122,-0.0325 0.098,0.0113 0.1165,0.0369 0.145,0.19827 0.9793,5.54992 1.4813,10.24164 1.6783,15.68366 0.055,1.51072 0.055,5.77884 4e-4,7.26553 -0.3547,9.68515 -1.8351,18.58188 -4.615,27.73457 l -0.2594,0.85416 -0.1362,0 c -0.075,0 -0.1362,-0.0127 -0.1362,-0.0281 z"
       id="path4182"
       inkscape:connector-curvature="0"
       transform="matrix(0.8,0,0,-0.8,0,791.3)" /><path
       style="fill:#1a1a1a;fill-opacity:1"
       d="m 1277.6802,500.91485 0,-25.87191 21.2979,0 21.298,0 0.086,0.4631 c 0.573,3.07893 1.1039,7.24857 1.3825,10.85713 0.3267,4.23219 0.3951,9.17289 0.1859,13.4402 -0.4378,8.93444 -1.9969,17.86449 -4.5815,26.24235 l -0.2223,0.72038 -19.7233,0.0103 -19.7233,0.0103 0,-25.87192 z"
       id="path4184"
       inkscape:connector-curvature="0"
       transform="matrix(0.8,0,0,-0.8,0,791.3)" /><path
       style="fill:#1a1a1a;fill-opacity:1"
       d="m 1277.6802,500.91481 0,-25.87187 21.2999,0 c 20.25,0 21.3009,0.004 21.321,0.072 0.07,0.23885 0.5174,2.98599 0.702,4.31198 0.4976,3.57465 0.7936,6.81255 0.9785,10.70277 0.071,1.48607 0.071,7.52754 8e-4,8.95327 -0.4798,9.72206 -1.888,17.93965 -4.6223,26.97303 l -0.2212,0.73066 -19.7293,0 -19.7294,0 0,-25.87187 z"
       id="path4186"
       inkscape:connector-curvature="0"
       transform="matrix(0.8,0,0,-0.8,0,791.3)" /><path
       style="fill:#1a1a1a;fill-opacity:1"
       d="m 1277.6802,500.91481 0,-25.87187 21.3002,0 c 13.6626,0 21.309,0.0143 21.3248,0.0398 0.035,0.0572 0.4398,2.4998 0.6341,3.82968 0.4362,2.98537 0.7552,6.09987 0.9488,9.262 0.1391,2.27338 0.1453,2.54897 0.1443,6.48341 -0,4.24895 -0.01,4.46633 -0.2261,7.51252 -0.6037,8.41779 -2.0181,15.96332 -4.5509,24.27675 l -0.1034,0.3396 -19.7359,0 -19.7359,0 0,-25.87187 z"
       id="path4188"
       inkscape:connector-curvature="0"
       transform="matrix(0.8,0,0,-0.8,0,791.3)" /><path
       style="fill:#1a1a1a;fill-opacity:1"
       d="m 1277.6802,500.91485 0,-25.87191 21.3037,0 21.3036,0 0.036,0.0949 c 0.043,0.11303 0.4844,2.78353 0.658,3.98036 0.5189,3.57816 0.918,8.00369 1.0334,11.45769 0.05,1.49785 0.05,6.34368 -4e-4,8.01311 -0.059,1.96066 -0.2787,4.99384 -0.5383,7.43019 -0.7444,6.98604 -1.9792,12.9899 -4.1866,20.35583 l -0.1172,0.39106 -19.7461,0.0103 -19.7462,0.0103 0,-25.87192 z"
       id="path4190"
       inkscape:connector-curvature="0"
       transform="matrix(0.8,0,0,-0.8,0,791.3)" /><path
       style="fill:#1a1a1a;fill-opacity:1"
       d="m 1257.4727,511.16435 c 1.0048,-2.55954 1.9289,-5.85575 2.4508,-8.74254 0.779,-4.30794 0.3351,-12.87281 -1.018,-19.64101 -0.5227,-2.61474 -1.4512,-5.18978 -3.0228,-8.38301 -6.3824,-12.96828 -18.8806,-22.2914 -33.0794,-24.676 -2.8944,-0.48609 -4.2821,-0.58969 -7.8411,-0.58538 -3.5937,0.004 -5.0319,0.1282 -8.2084,0.70685 -9.1555,1.66788 -17.9721,6.42752 -24.419,13.18261 l -1.0746,1.12602 -0,-35.53465 -0,-35.53465 1.2516,-0.40415 c 4.2863,-1.38404 9.3872,-2.6378 14.0041,-3.44206 31.2557,-5.44469 62.8882,2.98519 87.1151,23.21567 18.5697,15.50647 31.2665,36.68387 36.2317,60.43214 0.2276,1.08863 0.4653,2.1889 0.5282,2.44505 0.1994,0.81186 0.8148,4.98843 1.055,7.15983 1.0542,9.5308 0.8499,19.26525 -0.6042,28.78816 l -0.1378,0.90233 -31.8125,0 -31.8126,0 0.3986,-1.01521 z"
       id="path4192"
       inkscape:connector-curvature="0"
       transform="matrix(0.8,0,0,-0.8,0,791.3)" /><path
       style="fill:#1a1a1a;fill-opacity:1"
       d="m 1200.0445,739.06567 c -33.1223,-2.13288 -64.7733,-10.63916 -94.3088,-25.34574 -24.5186,-12.20849 -43.9474,-26.20642 -63.5953,-45.81863 -12.7057,-12.68262 -21.8216,-23.66093 -30.9427,-37.26409 -44.66913,-66.61985 -53.6476,-151.67075 -23.93555,-226.73604 3.35156,-8.46747 10.66067,-23.5256 15.30595,-31.53317 6.7592,-11.65147 15.8886,-24.76955 23.9666,-34.43764 4.7588,-5.69561 15.1852,-16.85238 18.6391,-19.94468 l 3.212,-2.87575 79.2058,0 c 43.5633,0 79.2059,0.10929 79.2059,0.24285 0,0.13357 -0.524,1.03464 -1.1644,2.00238 l -1.1644,1.75952 -6.3341,0.5721 c -37.6718,3.40252 -74.8891,20.06193 -102.412,45.84222 -27.9701,26.19914 -45.7017,57.6545 -53.0785,94.15974 -2.15,10.63998 -3.0292,18.57189 -3.3585,30.30015 -1.3262,47.23364 16.1567,92.27599 49.0815,126.45231 27.8113,28.86855 64.2091,47.21406 103.993,52.41544 7.7755,1.01658 30.1486,1.43382 38.066,0.70991 53.4717,-4.88906 100.8819,-33.10931 130.7336,-77.81721 15.7215,-23.54548 25.3754,-50.35736 28.4496,-79.01301 0.9858,-9.18868 0.9858,-26.99175 0,-36.18043 -2.0825,-19.41202 -7.2694,-38.31898 -15.3034,-55.78316 l -1.6327,-3.54921 17.0762,-26.15383 17.0761,-26.15383 0.1172,140.70573 0.1172,140.70572 -3.8942,4.72946 c -15.6482,19.00444 -36.0394,36.93945 -57.3499,50.4417 -34.4479,21.82616 -73.198,34.49276 -114.4222,37.40226 -6.1903,0.4369 -25.5443,0.53872 -31.3491,0.16493 z"
       id="path4198"
       inkscape:connector-curvature="0"
       transform="matrix(0.8,0,0,-0.8,0,791.3)" /><path
       style="fill:#1a1a1a;fill-opacity:1"
       d="m 1108.1427,494.02494 c 7e-4,-1.52455 0.092,-4.23275 0.2048,-6.06895 0.7049,-11.48658 3.2322,-22.73102 7.478,-33.27008 0.7572,-1.87958 0.6745,-1.71736 0.8751,-1.71736 0.096,0 0.1738,0.0108 0.1738,0.024 0,0.0132 -0.094,0.2424 -0.209,0.50939 -0.115,0.26699 -0.4455,1.07486 -0.7345,1.79528 -3.9965,9.96395 -6.3272,20.13969 -7.2359,31.59134 -0.071,0.88984 -0.4925,7.75165 -0.4942,8.03877 -4e-4,0.0581 6.1377,0.0728 30.4976,0.0728 l 30.498,0 0.04,-0.45117 c 0.1651,-1.84555 0.5817,-6.1023 0.7041,-7.19532 0.082,-0.73156 0.1403,-1.38648 0.1296,-1.45538 -0.038,-0.2439 -0.9178,2.58412 -1.9356,6.2202 -0.2778,0.99258 -0.5491,1.94876 -0.6027,2.12487 l -0.098,0.32018 -28.8603,0.0146 -28.8603,0.0146 5e-4,-0.97516 c 6e-4,-1.00894 0.092,-2.50619 0.2944,-4.81738 0.2968,-3.3912 1.2109,-11.5657 1.2644,-11.30786 0.012,0.0563 -0.019,0.44925 -0.069,0.87323 -0.1258,1.0789 -0.1463,1.3158 -0.7616,8.77549 -0.3023,3.66611 -0.5607,6.777 -0.5741,6.91308 l -0.024,0.24741 28.7473,0 c 27.3276,0 28.7489,-0.005 28.7788,-0.10188 0.017,-0.056 0.7671,-2.85255 1.6662,-6.21449 1.9218,-7.18662 2.0891,-7.75851 2.9386,-10.04215 0.3597,-0.96715 1.1367,-2.8118 1.3853,-3.28916 l 0.1517,-0.29108 0,0.90245 0,0.90246 -0.2978,0.69847 c -1.7906,4.19841 -2.9581,8.86096 -3.3965,13.56406 -0.1214,1.30175 -0.225,3.75371 -0.1815,4.29338 l 0.036,0.45117 -30.7681,0 -30.7683,0 6e-4,-1.14975 z"
       id="path4200"
       inkscape:connector-curvature="0"
       transform="matrix(0.8,0,0,-0.8,0,791.3)" /><path
       style="fill:#1a1a1a;fill-opacity:1"
       d="m 1245.3199,528.53487 c 2.0763,-1.86592 4.3806,-4.35878 6.0182,-6.51075 1.8531,-2.43515 4.0042,-6.02859 5.1169,-8.54775 l 0.5654,-1.28022 0.6116,0 c 0.3364,0 0.6117,0.0259 0.6117,0.0575 0,0.0316 -0.2412,0.59485 -0.536,1.25163 -2.1223,4.72848 -6.2969,9.96614 -11.6126,14.56989 -1.7365,1.50385 -2.3264,1.85372 -0.7752,0.45972 z"
       id="path4206"
       inkscape:connector-curvature="0"
       transform="matrix(0.8,0,0,-0.8,0,791.3)" /><path
       style="fill:#1a1a1a;fill-opacity:1"
       d="m 697.33996,495.58463 0,-103.4875 11.11441,0 11.11441,0 0,42.6464 0,42.6464 19.96477,-0.004 c 24.51057,-0.005 29.22533,-0.14324 36.59523,-1.07045 12.32134,-1.55016 22.11198,-4.96613 31.12034,-10.85795 13.49442,-8.82586 23.44801,-24.81982 26.49215,-42.56902 1.68588,-9.82969 1.34708,-20.28985 -0.94799,-29.26794 l -0.38934,-1.52309 45.81152,0 45.81154,0 0.11003,1.02911 c 0.8982,8.40087 1.15917,13.94938 1.03579,22.023 -0.0983,6.43382 -0.19229,8.29854 -0.69285,13.74893 -1.85218,20.16699 -7.23231,39.38187 -15.53702,55.48972 -7.6834,14.90276 -17.8513,27.32062 -30.86399,37.69356 -21.11465,16.83136 -48.83508,26.9404 -81.94425,29.8833 -10.14394,0.90165 -14.71279,0.99763 -47.6273,1.00057 l -28.93863,0.003 0,23.05211 0,23.05211 -11.11441,0 -11.11441,0 0,-103.4875 z"
       id="path4208"
       inkscape:connector-curvature="0"
       transform="matrix(0.8,0,0,-0.8,0,791.3)" /><path
       style="fill:#1a1a1a;fill-opacity:1"
       d="m 718.64998,301.9975 0,-32.51994 20.64399,0.002 c 28.88881,0.003 36.57336,0.1055 46.28945,0.61606 25.19804,1.32409 44.10437,5.23331 60.8411,12.57998 3.74954,1.64587 6.91619,3.22935 10.60482,5.30289 6.99638,3.93299 13.83953,8.71693 20.29591,14.18857 l 1.20757,1.02338 0,15.66334 0,15.66335 -79.94142,0 -79.94142,0 0,-32.51994 z"
       id="path4210"
       inkscape:connector-curvature="0"
       transform="matrix(0.8,0,0,-0.8,0,791.3)" /><path
       style="fill:#1a1a1a;fill-opacity:1"
       d="m 459.83699,515.38322 0,-51.74375 40.25886,0 40.25886,0 0,51.74375 0,51.74375 -40.25886,0 -40.25886,0 0,-51.74375 z"
       id="path4212"
       inkscape:connector-curvature="0"
       transform="matrix(0.8,0,0,-0.8,0,791.3)" /><path
       style="fill:#1a1a1a;fill-opacity:1"
       d="m 450.34961,483.38583 0,-73.17671 45.00047,0 45.00048,0 0,73.17671 0,73.17671 -45.00048,0 -45.00047,0 0,-73.17671 z"
       id="path4214"
       inkscape:connector-curvature="0"
       transform="matrix(0.8,0,0,-0.8,0,791.3)" /><path
       style="fill:#1a1a1a;fill-opacity:1"
       d="m 450.2851,620.74435 0,-98.79475 45.03394,0 45.03394,0 0,98.79475 0,98.79475 -45.03394,0 -45.03394,0 0,-98.79475 z"
       id="path4216"
       inkscape:connector-curvature="0"
       transform="matrix(0.8,0,0,-0.8,0,791.3)" /><path
       style="fill:#1a1a1a;fill-opacity:1"
       d="m 227.06533,397.92675 0,-103.48749 156.672,0 156.67201,0 0,103.48749 0,103.4875 -45.03394,0 -45.03394,0 0,-76.40127 0,-76.40127 -89.90322,0 -89.90322,0 0,76.40127 0,76.40127 -21.73485,0 -21.73484,0 0,-103.4875 z"
       id="path4218"
       inkscape:connector-curvature="0"
       transform="matrix(0.8,0,0,-0.8,0,791.3)" /><path
       style="fill:#1a1a1a;fill-opacity:1"
       d="m 450.22106,384.03866 0,-35.48378 -64.38124,0 -64.38125,0 0,-39.51789 0,-39.5179 109.38798,0 109.38799,0 0.10944,18.6475 c 0.0602,10.25613 0.10948,44.00689 0.10953,75.00168 l 9e-5,56.35418 -45.11627,0 -45.11627,0 0,-35.48379 z"
       id="path4220"
       inkscape:connector-curvature="0"
       transform="matrix(0.8,0,0,-0.8,0,791.3)" /><path
       style="fill:#1a1a1a;fill-opacity:1"
       d="m 204.6214,286.29536 0,-16.75394 39.9707,0 39.97071,0 0,16.75394 0,16.75394 -39.97071,0 -39.9707,0 0,-16.75394 z"
       id="path4222"
       inkscape:connector-curvature="0"
       transform="matrix(0.8,0,0,-0.8,0,791.3)" /><path
       style="fill:#1a1a1a;fill-opacity:1"
       d="m 1510.1246,551.6074 c -0.1715,-0.49942 -1.4741,-7.29267 -2.0601,-10.74393 -1.5963,-9.4017 -2.6423,-19.08041 -3.3275,-30.79103 -0.2861,-4.89142 -0.2862,-24.9091 -10e-5,-29.80308 0.7636,-13.06012 1.97,-23.39713 4.0824,-34.98083 6.6126,-36.26151 21.1898,-70.06697 42.3387,-98.18626 l 1.7028,-2.26405 73.2799,0 73.2798,0 -0.053,0.34408 c -0.044,0.29111 -0.5975,0.52749 -3.5928,1.53569 -18.5818,6.25472 -35.2811,16.0624 -49.809,29.25344 -17.3154,15.72206 -30.6781,35.3841 -39.7172,58.4407 -1.2322,3.1428 -3.8443,10.88784 -4.8037,14.24291 -3.3227,11.61958 -5.35,23.37137 -6.3058,36.55406 -0.2869,3.95759 -0.29,18.57858 -0,22.55813 1.1328,15.80508 3.7723,29.59807 8.0961,42.30681 0.2753,0.80941 0.5007,1.53184 0.5007,1.60541 0,0.0736 -21.0457,0.13377 -46.7681,0.13377 -37.2669,0 -46.7823,-0.0418 -46.8387,-0.20582 l 0,0 z"
       id="path4224"
       inkscape:connector-curvature="0"
       transform="matrix(0.8,0,0,-0.8,0,791.3)" /><path
       style="fill:#1a1a1a;fill-opacity:1"
       d="m 1536.3124,369.59132 c 4.0578,-7.02856 8.3508,-13.63718 13.0161,-20.03681 0.8741,-1.19905 3.2228,-4.33487 3.5456,-4.73391 0.1282,-0.15849 0.5368,-0.67716 0.9078,-1.15261 6.9156,-8.86092 14.5808,-17.22324 22.8601,-24.93912 l 0.7358,-0.68577 11.912,0 11.9119,0 0,25.87188 0,25.87187 -32.5011,0 -32.5011,0 0.1129,-0.19553 z"
       id="path4226"
       inkscape:connector-curvature="0"
       transform="matrix(0.8,0,0,-0.8,0,791.3)" /><path
       style="fill:#1a1a1a;fill-opacity:1"
       d="m 1583.203,312.80901 c 0.3619,-0.32799 1.9936,-1.71185 3.2824,-2.78383 14.041,-11.67834 29.2066,-21.26069 45.6732,-28.85869 5.6718,-2.61707 11.6795,-5.06815 17.6579,-7.20432 1.1641,-0.41594 3.5873,-1.25427 3.6255,-1.25427 0.01,0 0.018,9.05824 0.018,20.12943 l 0,20.12943 -35.2153,0 -35.2153,0 0.174,-0.15775 z"
       id="path4228"
       inkscape:connector-curvature="0"
       transform="matrix(0.8,0,0,-0.8,0,791.3)" /><path
       style="fill:#1a1a1a;fill-opacity:1"
       d="m 2088.9256,365.23334 0,-73.17671 71.7214,0 71.7213,0 0,28.4091 0,28.4091 -50.1234,0 -50.1235,0 0,44.76761 0,44.76762 -21.5979,0 -21.5979,0 0,-73.17672 z"
       id="path4230"
       inkscape:connector-curvature="0"
       transform="matrix(0.8,0,0,-0.8,0,791.3)" /><path
       style="fill:#1a1a1a;fill-opacity:1"
       d="m 2042.1205,397.89216 0,-49.48306 -49.7742,0 -49.7741,0 0,-23.69365 0,-23.69365 100.7708,0 100.7708,0 0,23.92651 0,23.92652 -5.9962,0 -5.9962,0 0,49.25019 0,49.2502 -45.0004,0 -45.0005,0 0,-49.48306 z"
       id="path4232"
       inkscape:connector-curvature="0"
       transform="matrix(0.8,0,0,-0.8,0,791.3)" /><path
       style="fill:#1a1a1a;fill-opacity:1"
       d="m 2042.1686,518.81443 0,-51.74375 34.7015,0 34.7016,0 0.021,51.74375 0.021,51.74375 -34.7222,0 -34.7223,0 0,-51.74375 z"
       id="path4234"
       inkscape:connector-curvature="0"
       transform="matrix(0.8,0,0,-0.8,0,791.3)" /><path
       style="fill:#1a1a1a;fill-opacity:1"
       d="m 2042.1686,531.90474 0,-51.74375 44.9516,0 44.9516,0 0,51.74375 0,51.74374 -44.9516,0 -44.9516,0 0,-51.74374 z"
       id="path4236"
       inkscape:connector-curvature="0"
       transform="matrix(0.8,0,0,-0.8,0,791.3)" /><path
       style="fill:#1a1a1a;fill-opacity:1"
       d="m 2042.168,683.22911 0,-36.14241 44.9516,0 44.9516,0 0,36.14241 0,36.14241 -44.9516,0 -44.9516,0 0,-36.14241 z"
       id="path4238"
       inkscape:connector-curvature="0"
       transform="matrix(0.8,0,0,-0.8,0,791.3)" /><path
       style="fill:#1a1a1a;fill-opacity:1"
       d="m 2502.3583,543.08609 0,-146.35343 44.9423,0 44.9422,0 0,40.30106 0,40.30105 24.6251,-0.0959 c 25.7991,-0.1005 26.8514,-0.13826 34.1157,-1.22411 9.8862,-1.47776 18.8508,-4.53044 26.2537,-8.94008 3.9937,-2.37892 6.8367,-4.54375 10.0287,-7.63629 l 3.0115,-2.91774 0,46.25172 c 0,26.95482 -0.087,46.25171 -0.2078,46.25171 -0.1142,0 -2.0266,0.3117 -4.2497,0.69268 -9.6006,1.64531 -19.105,2.61091 -29.7731,3.02483 -3.394,0.13168 -19.1383,0.23981 -34.9875,0.24028 l -28.8166,8.5e-4 0,68.22841 0,68.2284 -44.9422,0 -44.9423,0 0,-146.35342 z"
       id="path4240"
       inkscape:connector-curvature="0"
       transform="matrix(0.8,0,0,-0.8,0,791.3)" /><path
       style="fill:#1a1a1a;fill-opacity:1"
       d="m 2502.3583,543.08609 0,-146.35343 44.9423,0 44.9422,0 0,40.28504 0,40.28503 18.6872,-0.009 c 28.1092,-0.0136 34.7697,-0.28813 42.7883,-1.76383 7.5501,-1.3895 13.5492,-3.35116 19.7932,-6.47225 5.5364,-2.76742 9.4754,-5.54144 13.9339,-9.81298 l 2.8321,-2.71329 0,46.11618 c 0,30.99151 -0.078,46.16417 -0.2367,46.26248 -0.344,0.2126 -7.5709,1.40264 -12.5707,2.06998 -4.1897,0.55922 -9.164,1.04562 -16.0674,1.57112 -2.1298,0.16212 -15.5215,0.29637 -36.2682,0.36359 l -32.8917,0.10656 0,68.20913 0,68.20913 -44.9422,0 -44.9423,0 0,-146.35342 z"
       id="path4242"
       inkscape:connector-curvature="0"
       transform="matrix(0.8,0,0,-0.8,0,791.3)" /><path
       style="fill:#1a1a1a;fill-opacity:1"
       d="m 2502.279,689.94144 0,-29.67958 36.4306,0 36.4306,0 0,29.67958 0,29.67959 -36.4306,0 -36.4306,0 0,-29.67959 z"
       id="path4244"
       inkscape:connector-curvature="0"
       transform="matrix(0.8,0,0,-0.8,0,791.3)" /><path
       style="fill:#1a1a1a;fill-opacity:1"
       d="m 2502.279,685.53684 0,-34.08418 44.9928,0 44.9928,0 0,11.4712 c 0,6.30916 -0.025,21.64704 -0.055,34.08419 l -0.055,22.61298 -44.9379,0 -44.938,0 0,-34.08419 z"
       id="path4246"
       inkscape:connector-curvature="0"
       transform="matrix(0.8,0,0,-0.8,0,791.3)" /><path
       style="fill:#1a1a1a;fill-opacity:1"
       d="m 2678.9907,530.54245 0,-20.25292 39.9711,0 39.971,0 -0.011,2.29241 -0.011,2.29241 -0.7409,0.69814 c -17.2355,16.23933 -39.2344,27.235 -65.8078,32.89259 -0.687,0.14628 -1.4622,0.3071 -1.7225,0.35739 -0.2604,0.0503 -0.5035,0.11719 -0.5401,0.14868 -0.037,0.0315 -0.3609,0.10375 -0.7204,0.16057 -0.3595,0.0568 -1.2279,0.20346 -1.9298,0.32586 -3.2457,0.56602 -8.0931,1.33779 -8.4024,1.33779 -0.048,0 -0.057,-3.0504 -0.057,-20.25292 z"
       id="path4248"
       inkscape:connector-curvature="0"
       transform="matrix(0.8,0,0,-0.8,0,791.3)"
       inkscape:export-xdpi="238"
       inkscape:export-ydpi="238" /><path
       style="fill:#999999;fill-opacity:1"
       d="m 1214.1685,570.85576 0,-30.6533 6.9859,-1.26773 c 22.5585,-4.09372 37.5974,-21.70814 37.6826,-44.13606 0.069,-18.22489 -9.2293,-33.27712 -25.1081,-40.64462 -9.8703,-4.57963 -27.3876,-4.57963 -37.2579,0 -13.8547,6.42836 -25.149,22.38089 -25.149,35.52167 l 0,5.64851 -31.6692,0 -31.6691,0 0,-7.99162 c 0,-21.59914 13.0811,-49.9371 31.6,-68.45604 56.5806,-56.58061 150.8288,-34.326 177.3579,41.87913 10.3294,29.67133 5.848,65.26656 -11.5567,91.79299 -18.5656,28.29576 -53.6921,48.96036 -83.2248,48.96036 l -7.9916,0 0,-30.65329 z"
       id="path4291"
       inkscape:connector-curvature="0"
       transform="matrix(0.8,0,0,-0.8,0,791.3)" /></g></svg>