<?xml version="1.0" encoding="UTF-8" standalone="no"?>
<svg
   xmlns:dc="http://purl.org/dc/elements/1.1/"
   xmlns:cc="http://creativecommons.org/ns#"
   xmlns:rdf="http://www.w3.org/1999/02/22-rdf-syntax-ns#"
   xmlns:svg="http://www.w3.org/2000/svg"
   xmlns="http://www.w3.org/2000/svg"
   viewBox="0 0 2973.175 989.125"
   height="989.125"
   width="2973.175"
   xml:space="preserve"
   version="1.1"
   id="svg2"><metadata
     id="metadata8"><rdf:RDF><cc:Work
         rdf:about=""><dc:format>image/svg+xml</dc:format><dc:type
           rdf:resource="http://purl.org/dc/dcmitype/StillImage" /></cc:Work></rdf:RDF></metadata><defs
     id="defs6" /><g
     transform="matrix(1.25,0,0,-1.25,0,989.125)"
     id="g10"><g
       transform="scale(0.162168,0.162168)"
       id="g12"><path
         id="path14"
         style="fill:#1a468e;fill-opacity:1;fill-rule:nonzero;stroke:none"
         d="m 1345.63,2524.66 165.12,0 c 83.18,0 189.74,0 282.93,69.89 79.89,63.27 119.81,163.11 119.81,259.59 0,123.15 -59.88,206.38 -123.11,253.01 -89.89,63.22 -203.04,69.85 -306.26,69.85 l -138.49,0 0,-652.34 z m 201.75,1025.12 c 249.63,0 422.71,-26.59 585.83,-169.74 179.69,-159.74 226.33,-376.08 226.33,-535.85 0,-86.53 -13.33,-326.15 -183.12,-495.94 -123.11,-123.15 -306.22,-196.33 -562.44,-196.33 l -268.35,0 0,-822.16 -443.923,0 0,2220.02 645.673,0" /><path
         id="path16"
         style="fill:#1a468e;fill-opacity:1;fill-rule:nonzero;stroke:none"
         d="m 3247.38,2528 111.9,0 c 83.18,0 425.95,10 425.95,336.14 0,329.53 -339.48,332.86 -419.32,332.86 l -118.53,0 0,-669 z m 198.37,1021.78 c 306.22,0 462.64,-79.85 565.86,-166.37 169.75,-143.11 219.67,-332.85 219.67,-499.3 0,-216.34 -86.56,-406.04 -259.59,-522.48 -56.6,-40.01 -136.49,-76.6 -243.01,-96.56 l 692.3,-935.31 -539.23,0 -592.45,887.97 -41.94,0 0,-887.97 -443.9,0 0,2220.02 642.29,0" /><path
         id="path18"
         style="fill:#1a468e;fill-opacity:1;fill-rule:nonzero;stroke:none"
         d="m 8526.42,3043.85 c -129.8,173.03 -282.92,189.75 -362.77,189.75 -232.91,0 -306.23,-146.45 -306.23,-259.64 0,-53.26 16.65,-103.18 69.93,-149.82 53.28,-49.85 126.54,-76.47 266.33,-126.44 173.03,-59.89 336.13,-119.77 449.29,-222.97 99.83,-89.89 189.74,-239.67 189.74,-466 0,-432.67 -312.89,-728.9 -772.23,-728.9 -409.39,0 -649.02,249.59 -765.5,419.38 l 282.92,269.63 c 106.49,-216.37 309.49,-296.26 465.99,-296.26 196.29,0 342.74,119.81 342.74,306.27 0,79.8 -26.52,143.06 -86.45,199.7 -83.25,76.52 -216.39,119.73 -342.86,163 -116.48,40 -256.28,93.26 -369.5,193.08 -73.13,63.21 -176.36,186.36 -176.36,412.69 0,326.2 219.65,652.39 712.29,652.39 139.73,0 402.67,-26.63 629.04,-259.64 l -226.37,-296.22" /><path
         id="path20"
         style="fill:#1a468e;fill-opacity:1;fill-rule:nonzero;stroke:none"
         d="m 10206.8,3159.15 0,-1829.39 -443.94,0 0,1831.44 -491.72,0 0,388.58 1431.16,0 0,-390.63 -495.5,0" /><path
         id="path22"
         style="fill:#1a468e;fill-opacity:1;fill-rule:nonzero;stroke:none"
         d="m 11140.6,1329.76 443.859,0 0,2220.02 -443.859,0 0,-2220.02 z" /><path
         id="path24"
         style="fill:#1a468e;fill-opacity:1;fill-rule:nonzero;stroke:none"
         d="m 12466.7,2528 111.9,0 c 83.2,0 426,10 426,336.14 0,329.53 -339.5,332.86 -419.4,332.86 l -118.5,0 0,-669 z m 198.4,1021.78 c 306.2,0 462.5,-79.85 565.8,-166.37 169.8,-143.11 219.7,-332.85 219.7,-499.3 0,-216.34 -86.7,-406.04 -259.6,-522.48 -56.5,-40.01 -136.5,-76.6 -243,-96.56 l 692.3,-935.31 -539.1,0 -592.5,892.05 -42,0 0,-892.05 -443.9,0 0,2220.02 642.3,0" /><path
         id="path26"
         style="fill:#fbc709;fill-opacity:1;fill-rule:nonzero;stroke:none"
         d="m 5660.98,2436.97 c -0.03,0.94 -0.17,1.84 -0.17,2.78 0,123.96 100.5,224.41 224.42,224.41 123.97,0 224.46,-100.45 224.46,-224.41 0,-123.49 -99.73,-223.55 -223.01,-224.37 l 0,-303.02 c 290.63,0.77 526,236.55 526,527.39 0,291.36 -236.17,527.43 -527.45,527.43 -291.27,0 -527.44,-236.07 -527.44,-527.43 0,-0.94 0.13,-1.84 0.13,-2.78 l 303.06,0" /><path
         id="path28"
         style="fill:#1a468e;fill-opacity:1;fill-rule:nonzero;stroke:none"
         d="m 6662.48,2821.02 c 56.43,-115.03 88.25,-244.42 88.25,-381.25 0,-478.75 -388.12,-866.96 -866.91,-866.96 -478.79,0 -866.88,388.21 -866.88,866.96 0,461.52 360.69,838.71 815.63,865.25 L 6048.68,3636 c -53.93,7.39 -108.9,11.54 -164.86,11.54 -667,0 -1207.82,-540.72 -1207.82,-1207.77 0,-667.04 540.82,-1207.77 1207.82,-1207.77 667.06,0 1207.79,540.73 1207.79,1207.77 0,260.07 -82.51,500.85 -222.36,697.9 l -206.77,-316.65" /></g></g></svg>