<?xml version="1.0" encoding="UTF-8" standalone="no"?>
<svg
   xmlns:dc="http://purl.org/dc/elements/1.1/"
   xmlns:cc="http://creativecommons.org/ns#"
   xmlns:rdf="http://www.w3.org/1999/02/22-rdf-syntax-ns#"
   xmlns:svg="http://www.w3.org/2000/svg"
   xmlns="http://www.w3.org/2000/svg"
   viewBox="0 0 2973.175 989.125"
   height="989.125"
   width="2973.175"
   xml:space="preserve"
   version="1.1"
   id="svg2"><metadata
     id="metadata8"><rdf:RDF><cc:Work
         rdf:about=""><dc:format>image/svg+xml</dc:format><dc:type
           rdf:resource="http://purl.org/dc/dcmitype/StillImage" /></cc:Work></rdf:RDF></metadata><defs
     id="defs6" /><g
     transform="matrix(1.25,0,0,-1.25,0,989.125)"
     id="g10"><g
       transform="scale(0.162168,0.162168)"
       id="g12"><path
         id="path14"
         style="fill:#1a468e;fill-opacity:1;fill-rule:nonzero;stroke:none"
         d="m 10517.8,3158.45 0,-1827.61 -443.5,0 0,1829.66 -491.32,0 0,388.2 1429.82,0 0,-390.25 -495,0" /><path
         id="path16"
         style="fill:#1a468e;fill-opacity:1;fill-rule:nonzero;stroke:none"
         d="m 2665.52,3549.96 0,-2220.37 -443.96,0 0,1830.5 -887.24,0 0,-1830.5 -445.519,0 0,2220.37 1776.719,0" /><path
         id="path18"
         style="fill:#1a468e;fill-opacity:1;fill-rule:nonzero;stroke:none"
         d="m 3549.88,2524.61 165.73,0 c 83.18,0 189.75,0 282.95,69.96 79.91,63.27 119.8,163.15 119.8,259.67 0,123.17 -59.9,206.4 -123.13,252.97 -89.87,63.32 -203.04,69.92 -306.23,69.92 l -139.12,0 0,-652.52 z m 202.33,1025.35 c 249.71,0 422.78,-26.66 585.88,-169.8 179.75,-159.78 226.37,-376.19 226.37,-535.97 0,-86.47 -13.33,-326.17 -183.07,-495.96 -123.18,-123.17 -306.28,-196.44 -562.59,-196.44 l -268.92,0 0,-822.2 -443.49,0 0,2220.37 645.82,0" /><path
         id="path20"
         style="fill:#1a468e;fill-opacity:1;fill-rule:nonzero;stroke:none"
         d="m 9139.06,1409.5 c -133.07,-69.86 -309.56,-129.86 -549.25,-129.86 -389.53,0 -625.83,133.14 -812.24,309.61 -256.34,246.39 -356.18,522.61 -356.18,848.91 0,402.75 166.43,692.35 356.18,868.77 223.04,209.78 499.29,292.96 815.51,292.96 156.51,0 342.98,-26.65 545.98,-136.49 l 0,-506.01 c -203,233.06 -456.07,249.71 -535.93,249.71 -446.14,0 -735.72,-366.19 -735.72,-775.63 0,-492.67 379.55,-759.03 752.37,-759.03 206.45,0 389.47,89.88 519.28,243.02 l 0,-505.96" /><path
         id="path22"
         style="fill:#1a468e;fill-opacity:1;fill-rule:nonzero;stroke:none"
         d="m 11456.7,1329.59 443.492,0 0,2220.37 -443.492,0 0,-2220.37 z" /><path
         id="path24"
         style="fill:#1a468e;fill-opacity:1;fill-rule:nonzero;stroke:none"
         d="m 12787.5,2524.61 165.7,0 c 83.2,0 189.7,0 283,69.96 79.9,63.27 119.8,163.15 119.8,259.67 0,123.17 -59.9,206.4 -123.2,252.97 -89.9,63.32 -203,69.92 -306.2,69.92 l -139.1,0 0,-652.52 z m 202.3,1025.35 c 249.7,0 422.8,-26.66 585.9,-169.8 179.8,-159.78 226.4,-376.19 226.4,-535.97 0,-86.47 -13.3,-326.17 -183.1,-495.96 -123.2,-123.17 -306.2,-196.44 -562.6,-196.44 l -268.9,0 0,-822.2 -443.5,0 0,2220.37 645.8,0" /><path
         id="path26"
         style="fill:#fbc709;fill-opacity:1;fill-rule:nonzero;stroke:none"
         d="m 5769.97,2436.93 c 0,0.94 -0.13,1.87 -0.13,2.79 0,123.97 100.5,224.57 224.5,224.57 123.98,0 224.47,-100.6 224.47,-224.57 0,-123.43 -99.74,-223.62 -223.05,-224.37 l 0,-303.1 c 290.7,0.79 526.13,236.6 526.13,527.47 0,291.37 -236.24,527.57 -527.55,527.57 -291.36,0 -527.55,-236.2 -527.55,-527.57 0,-0.92 0.12,-1.85 0.12,-2.79 l 303.06,0" /><path
         id="path28"
         style="fill:#1a468e;fill-opacity:1;fill-rule:nonzero;stroke:none"
         d="m 6771.63,2821.1 c 56.55,-115.11 88.37,-244.48 88.37,-381.37 0,-478.82 -388.24,-867.01 -867.07,-867.01 -478.86,0 -867.06,388.19 -867.06,867.01 0,461.59 360.83,838.9 815.75,865.41 l 216.23,331.08 c -53.97,7.4 -108.96,11.56 -164.92,11.56 -667.2,0 -1208.01,-540.85 -1208.01,-1208.05 0,-667.12 540.81,-1207.97 1208.01,-1207.97 667.21,0 1208.01,540.85 1208.01,1207.97 0,260.15 -82.51,500.91 -222.42,698.1 L 6771.63,2821.1" /></g></g></svg>