<?xml version="1.0" encoding="UTF-8" standalone="no"?>
<svg
   xmlns:dc="http://purl.org/dc/elements/1.1/"
   xmlns:cc="http://creativecommons.org/ns#"
   xmlns:rdf="http://www.w3.org/1999/02/22-rdf-syntax-ns#"
   xmlns:svg="http://www.w3.org/2000/svg"
   xmlns="http://www.w3.org/2000/svg"
   viewBox="0 0 2973.175 989.125"
   height="989.125"
   width="2973.175"
   xml:space="preserve"
   version="1.1"
   id="svg2"><metadata
     id="metadata8"><rdf:RDF><cc:Work
         rdf:about=""><dc:format>image/svg+xml</dc:format><dc:type
           rdf:resource="http://purl.org/dc/dcmitype/StillImage" /></cc:Work></rdf:RDF></metadata><defs
     id="defs6" /><g
     transform="matrix(1.25,0,0,-1.25,0,989.125)"
     id="g10"><g
       transform="scale(0.162168,0.162168)"
       id="g12"><path
         id="path14"
         style="fill:#244991;fill-opacity:1;fill-rule:nonzero;stroke:none"
         d="m 1038.83,749.152 c 66.6,-29.601 153.18,-73.257 152.44,-162.789 0,-45.879 -15.54,-84.351 -46.62,-114.691 -31.08,-30.34 -70.3,-45.137 -117.66,-45.137 -51.049,0 -94.709,15.539 -130.959,46.617 l 0,73.993 c 27.379,-33.293 77.688,-62.891 130.959,-62.891 28.13,0 51.81,8.879 71.78,27.379 19.98,18.496 29.6,41.43 29.6,68.808 0,40.696 -36.26,71.032 -82.88,93.977 -65.849,31.812 -153.162,70.293 -151.681,155.383 0,42.179 14.058,76.219 42.918,102.117 28.855,25.898 65.113,38.48 108.023,38.48 48.1,0 89.54,-14.062 125.06,-41.445 l 0,-71.765 c -36.26,36.992 -77.7,55.492 -125.8,55.492 -22.94,0 -42.91,-7.407 -61.408,-22.2 -17.762,-14.058 -26.641,-33.292 -26.641,-56.972 0,-34.785 37.738,-62.899 82.869,-84.356" /><path
         id="path16"
         style="fill:#244991;fill-opacity:1;fill-rule:nonzero;stroke:none"
         d="m 1770.68,434.672 60.6719,0 0,526.844 -60.6719,0 0,-526.844 z" /><path
         id="path18"
         style="fill:#244991;fill-opacity:1;fill-rule:nonzero;stroke:none"
         d="m 2458.11,961.516 62.89,0 182.03,-380.332 182.03,380.332 62.89,0 55.5,-526.844 -62.16,0 -34.78,338.156 c -5.18,49.574 -7.4,79.18 -6.66,87.313 l -3.69,0 c -2.97,-8.875 -25.91,-63.633 -37.75,-88.789 l -145.02,-309.305 -19.98,0 -146.51,310.781 c -2.97,5.922 -15.54,34.781 -37.74,87.313 l -2.96,0 c -0.74,-3.7 -1.48,-16.278 -2.96,-37.739 l -3.7,-49.574 -34.77,-338.156 -61.42,0 54.76,526.844" /><path
         id="path20"
         style="fill:#244991;fill-opacity:1;fill-rule:nonzero;stroke:none"
         d="m 3635.4,903.801 0,-219.762 82.14,0 c 77.69,0 128.75,43.652 128.75,110.988 0,65.852 -51.8,108.774 -129.49,108.774 l -81.4,0 z m -60.67,57.715 143.54,0 c 59.94,0 106.55,-15.539 139.86,-47.356 33.29,-31.82 50.31,-71.039 50.31,-119.133 0,-55.496 -18.5,-97.668 -55.49,-126.535 -37,-28.117 -84.36,-42.172 -142.07,-42.172 l -75.48,0 0,-191.648 -60.67,0 0,526.844" /><path
         id="path22"
         style="fill:#244991;fill-opacity:1;fill-rule:nonzero;stroke:none"
         d="m 4530.02,961.516 0,-469.129 186.47,0 0,-57.715 -247.14,0 0,526.844 60.67,0" /><path
         id="path24"
         style="fill:#244991;fill-opacity:1;fill-rule:nonzero;stroke:none"
         d="m 5272.95,434.672 0,526.844 291.53,0 0,-57.715 -230.86,0 0,-161.309 224.2,0 0,-59.199 -224.2,0 0,-190.906 230.86,0 0,-57.715 -291.53,0" /><path
         id="path26"
         style="fill:#244991;fill-opacity:1;fill-rule:nonzero;stroke:none"
         d="m 6867.58,903.801 0,-219.762 82.14,0 c 77.7,0 128.76,43.652 128.76,110.988 0,65.852 -51.8,108.774 -129.5,108.774 l -81.4,0 z m -60.67,57.715 143.55,0 c 59.94,0 106.56,-15.539 139.86,-47.356 33.29,-31.82 50.31,-71.039 50.31,-119.133 0,-55.496 -18.5,-97.668 -55.49,-126.535 -37,-28.117 -84.36,-42.172 -142.08,-42.172 l -75.48,0 0,-191.648 -60.67,0 0,526.844" /><path
         id="path28"
         style="fill:#244991;fill-opacity:1;fill-rule:nonzero;stroke:none"
         d="m 7950.16,615.223 -77.69,179.804 c -14.06,32.559 -23.68,56.239 -28.12,71.774 l -3.7,0 c -5.92,-18.5 -15.54,-42.918 -28.12,-72.52 l -79.18,-179.058 216.81,0 z m -126.53,346.293 36.26,0 234.57,-526.844 -66.6,0 -52.54,122.832 -267.12,0 -51.81,-122.832 -66.59,0 233.83,526.844" /><path
         id="path30"
         style="fill:#244991;fill-opacity:1;fill-rule:nonzero;stroke:none"
         d="m 8517.73,961.516 68.81,0 105.08,-181.286 c 14.06,-25.16 24.42,-45.878 31.08,-61.417 l 4.44,0 c 5.92,15.539 16.28,36.257 30.34,60.675 l 105.07,182.028 69.56,0 -177.59,-308.563 0,-218.281 -60.68,0 0,218.281 -176.11,308.563" /><path
         id="path32"
         style="fill:#244991;fill-opacity:1;fill-rule:nonzero;stroke:none"
         d="m 9505.59,961.516 62.9,0 182.03,-380.332 182.04,380.332 62.9,0 55.54,-526.844 -62.2,0 -34.78,338.156 c -5.18,49.574 -7.4,79.18 -6.66,87.313 l -3.7,0 c -2.96,-8.875 -25.9,-63.633 -37.74,-88.789 l -145.04,-309.305 -19.97,0 -146.52,310.781 c -2.96,5.922 -15.54,34.781 -37.74,87.313 l -2.96,0 c -0.74,-3.7 -1.48,-16.278 -2.96,-37.739 l -3.7,-49.574 -34.78,-338.156 -61.41,0 54.75,526.844" /><path
         id="path34"
         style="fill:#244991;fill-opacity:1;fill-rule:nonzero;stroke:none"
         d="m 10622.2,434.672 0,526.844 291.6,0 0,-57.715 -230.9,0 0,-161.309 224.2,0 0,-59.199 -224.2,0 0,-190.906 230.9,0 0,-57.715 -291.6,0" /><path
         id="path36"
         style="fill:#244991;fill-opacity:1;fill-rule:nonzero;stroke:none"
         d="m 11906.8,961.516 0,-526.844 -39.9,0 -257.6,349.996 c -9.6,14.055 -25.9,37.734 -48.1,71.773 l -2.9,0 c 1.5,-26.64 2.2,-52.531 2.2,-76.953 l 0,-344.816 -60.7,0 0,526.844 51.8,0 250.9,-342.594 c 22.9,-31.82 37,-53.277 42.9,-65.117 l 3.7,0 c -2.2,37.738 -3,65.117 -3,82.875 l 0,324.836 60.7,0" /><path
         id="path38"
         style="fill:#244991;fill-opacity:1;fill-rule:nonzero;stroke:none"
         d="m 12652,903.059 0,-468.387 -61.5,0 0,468.387 -133.1,0 0,58.457 327.7,0 0,-58.457 -133.1,0" /><path
         id="path40"
         style="fill:#244991;fill-opacity:1;fill-rule:nonzero;stroke:none"
         d="m 13460.7,749.152 c 66.6,-29.601 153.2,-73.257 152.4,-162.789 0,-45.879 -15.5,-84.351 -46.6,-114.691 -31.1,-30.34 -70.3,-45.137 -117.6,-45.137 -51,0 -94.8,15.539 -131,46.617 l 0,73.993 c 27.4,-33.293 77.7,-62.891 131,-62.891 28.1,0 51.8,8.879 71.7,27.379 20,18.496 29.6,41.43 29.6,68.808 0,40.696 -36.2,71.032 -82.8,93.977 -65.9,31.812 -153.2,70.293 -151.7,155.383 0,42.179 14.1,76.219 42.9,102.117 28.9,25.898 65.2,38.48 108,38.48 48.1,0 89.6,-14.062 125.1,-41.445 l 0,-71.765 c -36.3,36.992 -77.7,55.492 -125.8,55.492 -23,0 -42.9,-7.407 -61.4,-22.2 -17.7,-14.058 -26.7,-33.292 -26.7,-56.972 0,-34.785 37.8,-62.899 82.9,-84.356" /><path
         id="path42"
         style="fill:#1a468e;fill-opacity:1;fill-rule:nonzero;stroke:none"
         d="m 1333.65,2964.22 165.12,0 c 83.18,0 189.75,0 282.93,69.89 79.89,63.27 119.82,163.12 119.82,259.6 0,123.14 -59.89,206.37 -123.11,253 -89.89,63.23 -203.03,69.86 -306.27,69.86 l -138.49,0 0,-652.35 z m 201.76,1025.13 c 249.63,0 422.7,-26.59 585.82,-169.75 179.7,-159.73 226.33,-376.07 226.33,-535.86 0,-86.51 -13.33,-326.14 -183.11,-495.92 C 2041.34,2664.66 1858.22,2591.48 1602,2591.48 l -268.35,0 0,-822.16 -443.916,0 0,2220.03 645.676,0" /><path
         id="path44"
         style="fill:#1a468e;fill-opacity:1;fill-rule:nonzero;stroke:none"
         d="m 3235.4,2967.56 111.9,0 c 83.18,0 425.96,10.01 425.96,336.14 0,329.53 -339.49,332.86 -419.33,332.86 l -118.53,0 0,-669 z m 198.37,1021.79 c 306.23,0 462.64,-79.85 565.87,-166.37 169.74,-143.11 219.66,-332.86 219.66,-499.31 0,-216.34 -86.55,-406.04 -259.59,-522.48 -56.59,-40.01 -136.48,-76.6 -243,-96.56 l 692.3,-935.31 -539.23,0 -592.45,887.98 -41.94,0 0,-887.98 -443.9,0 0,2220.03 642.28,0" /><path
         id="path46"
         style="fill:#1a468e;fill-opacity:1;fill-rule:nonzero;stroke:none"
         d="m 8514.46,3483.41 c -129.81,173.04 -282.92,189.75 -362.78,189.75 -232.96,0 -306.22,-146.45 -306.22,-259.64 0,-53.26 16.65,-103.19 69.93,-149.82 53.21,-49.84 126.53,-76.47 266.32,-126.44 173.04,-59.89 336.14,-119.77 449.29,-222.96 99.84,-89.9 189.68,-239.67 189.68,-466.01 0,-432.67 -312.82,-728.9 -772.16,-728.9 -409.39,0 -649.02,249.6 -765.5,419.38 l 282.91,269.64 c 106.5,-216.37 309.5,-296.27 466,-296.27 196.28,0 342.73,119.82 342.73,306.27 0,79.8 -26.51,143.07 -86.45,199.71 -83.25,76.51 -216.38,119.73 -342.85,162.99 -116.49,40 -256.28,93.27 -369.5,193.08 -73.13,63.22 -176.36,186.36 -176.36,412.7 0,326.19 219.65,652.38 712.29,652.38 139.73,0 402.67,-26.63 629.04,-259.63 l -226.37,-296.23" /><path
         id="path48"
         style="fill:#1a468e;fill-opacity:1;fill-rule:nonzero;stroke:none"
         d="m 10194.9,3598.71 0,-1829.39 -444.01,0 0,1831.45 -491.71,0 0,388.58 1431.22,0 0,-390.64 -495.5,0" /><path
         id="path50"
         style="fill:#1a468e;fill-opacity:1;fill-rule:nonzero;stroke:none"
         d="m 11128.6,1769.32 443.922,0 0,2220.02 -443.922,0 0,-2220.02 z" /><path
         id="path52"
         style="fill:#1a468e;fill-opacity:1;fill-rule:nonzero;stroke:none"
         d="m 12454.8,2967.56 111.8,0 c 83.2,0 426.1,10.01 426.1,336.14 0,329.53 -339.6,332.86 -419.4,332.86 l -118.5,0 0,-669 z m 198.3,1021.79 c 306.3,0 462.6,-79.85 565.9,-166.37 169.7,-143.11 219.6,-332.86 219.6,-499.31 0,-216.34 -86.6,-406.04 -259.6,-522.48 -56.5,-40.01 -136.4,-76.6 -242.9,-96.56 l 692.2,-935.31 -539.1,0 -592.5,892.06 -41.9,0 0,-892.06 -444,0 0,2220.03 642.3,0" /><path
         id="path54"
         style="fill:#fbc709;fill-opacity:1;fill-rule:nonzero;stroke:none"
         d="m 5649.01,2876.53 c -0.04,0.94 -0.17,1.84 -0.17,2.78 0,123.96 100.5,224.42 224.42,224.42 123.96,0 224.45,-100.46 224.45,-224.42 0,-123.49 -99.72,-223.55 -223,-224.37 l 0,-303.02 c 290.63,0.78 526.01,236.56 526.01,527.39 0,291.35 -236.19,527.44 -527.46,527.44 -291.27,0 -527.44,-236.09 -527.44,-527.44 0,-0.94 0.13,-1.84 0.13,-2.78 l 303.06,0" /><path
         id="path56"
         style="fill:#1a468e;fill-opacity:1;fill-rule:nonzero;stroke:none"
         d="m 6650.52,3260.58 c 56.43,-115.03 88.25,-244.42 88.25,-381.24 0,-478.76 -388.12,-866.96 -866.93,-866.96 -478.79,0 -866.87,388.2 -866.87,866.96 0,461.52 360.69,838.7 815.62,865.25 l 216.12,330.98 c -53.94,7.39 -108.91,11.53 -164.87,11.53 -666.99,0 -1207.81,-540.72 -1207.81,-1207.76 0,-667.05 540.82,-1207.77 1207.81,-1207.77 667.07,0 1207.75,540.72 1207.75,1207.77 0,260.06 -82.45,500.84 -222.37,697.89 l -206.7,-316.65" /></g></g></svg>