<?xml version="1.0" encoding="UTF-8" standalone="no"?>
<svg
   xmlns:dc="http://purl.org/dc/elements/1.1/"
   xmlns:cc="http://creativecommons.org/ns#"
   xmlns:rdf="http://www.w3.org/1999/02/22-rdf-syntax-ns#"
   xmlns:svg="http://www.w3.org/2000/svg"
   xmlns="http://www.w3.org/2000/svg"
   viewBox="0 0 2973.175 989.125"
   height="989.125"
   width="2973.175"
   xml:space="preserve"
   version="1.1"
   id="svg2"><metadata
     id="metadata8"><rdf:RDF><cc:Work
         rdf:about=""><dc:format>image/svg+xml</dc:format><dc:type
           rdf:resource="http://purl.org/dc/dcmitype/StillImage" /></cc:Work></rdf:RDF></metadata><defs
     id="defs6" /><g
     transform="matrix(1.25,0,0,-1.25,0,989.125)"
     id="g10"><g
       transform="scale(0.162168,0.162168)"
       id="g12"><path
         id="path14"
         style="fill:#211d1d;fill-opacity:1;fill-rule:nonzero;stroke:none"
         d="m 1126.74,994.238 c 0,-35.945 -10.91,-64.601 -32.76,-85.988 -21.83,-21.379 -48.22,-31.844 -78.7,-31.844 -31.389,0 -57.776,10.465 -79.612,31.844 -21.387,21.387 -32.301,50.043 -32.301,85.988 l 0,211.092 25.016,0 0,-207.455 c 0,-30.48 8.191,-54.594 25.023,-71.875 16.836,-16.844 37.309,-25.48 61.874,-25.48 24.11,0 44.58,8.636 61.42,25.48 16.83,17.281 25.02,41.395 25.02,71.875 l 0,207.455 25.02,0 0,-211.092" /><path
         id="path16"
         style="fill:#211d1d;fill-opacity:1;fill-rule:nonzero;stroke:none"
         d="m 1718.12,1102.06 29.57,0 -92.8,-104.642 97.35,-116.008 -30.48,0 -83.71,100.543 -29.57,-31.394 0,-69.149 -25.02,0 0,347.58 25.02,0 0,-207.01 c 0,-16.82 -0.45,-30.019 -0.91,-40.484 l 2.28,0 c 6.81,9.098 14.56,18.199 23.2,27.754 l 85.07,92.81" /><path
         id="path18"
         style="fill:#211d1d;fill-opacity:1;fill-rule:nonzero;stroke:none"
         d="m 2201.68,1067.48 c 5.92,10.46 15.93,19.56 29.12,26.84 13.65,7.28 26.84,10.92 40.04,10.92 5,0 9.1,-0.45 11.82,-0.91 l 0,-24.57 c -5.46,0.46 -9.55,0.92 -11.82,0.92 -45.96,0 -69.16,-29.58 -69.16,-88.27 l 0,-111 -25.02,0 0,220.65 22.75,0 2.27,-34.58" /><path
         id="path20"
         style="fill:#211d1d;fill-opacity:1;fill-rule:nonzero;stroke:none"
         d="m 2842.21,979.676 c -20.48,7.734 -43.22,11.828 -68.24,11.828 -42.31,0 -63.7,-15.922 -63.7,-47.766 0,-30.937 16.84,-45.496 56.41,-45.496 21.39,0 39.58,6.821 53.69,20.016 14.56,13.656 21.84,30.027 21.84,49.594 l 0,11.824 z m -130.12,114.644 c 20.02,8.64 40.04,13.2 60.05,13.2 27.3,0 50.05,-7.28 67.79,-21.38 18.2,-14.11 27.3,-32.76 27.3,-55.96 l 0,-148.77 -20.47,0 -3.19,35.488 c -17.28,-26.843 -44.13,-40.492 -80.98,-40.492 -52.32,0 -78.25,22.293 -78.25,67.332 0,19.106 8.2,35.028 24.57,48.223 16.38,13.199 38.22,20.019 65.06,20.019 21.83,0 47.31,-5 59.59,-9.1 l 8.65,-3.185 0,26.845 c 0,18.65 -7.28,33.2 -22.3,43.67 -14.55,10.47 -30.48,15.47 -47.77,15.47 -23.65,0 -43.67,-5 -60.05,-15.02 l 0,23.66" /><path
         id="path22"
         style="fill:#211d1d;fill-opacity:1;fill-rule:nonzero;stroke:none"
         d="m 3345.79,881.41 -25.02,0 0,220.65 25.02,0 0,-220.65 z m -32.31,287.07 c 0,10.92 9.11,19.56 20.02,19.56 10.92,0 20.02,-8.64 20.02,-19.56 1.37,-25.93 -41.4,-25.93 -40.04,0" /><path
         id="path24"
         style="fill:#211d1d;fill-opacity:1;fill-rule:nonzero;stroke:none"
         d="m 3799.33,1102.06 22.75,0 2.28,-35.49 c 14.1,20.02 41.85,40.95 76.88,40.95 57.78,0 86.44,-36.86 86.44,-98.72 l 0,-127.39 -25.02,0 0,124.65 c 0,52.78 -22.29,79.16 -66.43,79.16 -35.94,0 -60.95,-30.93 -69.15,-44.13 l -2.72,-5 0,-154.68 -25.03,0 0,220.65" /><path
         id="path26"
         style="fill:#211d1d;fill-opacity:1;fill-rule:nonzero;stroke:none"
         d="m 4466.23,881.41 -25.02,0 0,220.65 25.02,0 0,-220.65 z m -32.3,287.07 c 0,10.92 9.1,19.56 20.02,19.56 10.92,0 20.02,-8.64 20.02,-19.56 1.36,-25.93 -41.4,-25.93 -40.04,0" /><path
         id="path28"
         style="fill:#211d1d;fill-opacity:1;fill-rule:nonzero;stroke:none"
         d="m 5062.64,979.676 c -20.48,7.734 -43.23,11.828 -68.25,11.828 -42.31,0 -63.69,-15.922 -63.69,-47.766 0,-30.937 16.83,-45.496 56.42,-45.496 21.38,0 39.57,6.821 53.67,20.016 14.57,13.656 21.85,30.027 21.85,49.594 l 0,11.824 z m -130.12,114.644 c 20.02,8.64 40.03,13.2 60.05,13.2 27.3,0 50.05,-7.28 67.79,-21.38 18.2,-14.11 27.29,-32.76 27.29,-55.96 l 0,-148.77 -20.47,0 -3.19,35.488 c -17.28,-26.843 -44.12,-40.492 -80.97,-40.492 -52.32,0 -78.25,22.293 -78.25,67.332 0,19.106 8.19,35.028 24.56,48.223 16.38,13.199 38.22,20.019 65.06,20.019 21.84,0 47.31,-5 59.59,-9.1 l 8.66,-3.185 0,26.845 c 0,18.65 -7.28,33.2 -22.3,43.67 -14.56,10.47 -30.48,15.47 -47.77,15.47 -23.66,0 -43.68,-5 -60.05,-15.02 l 0,23.66" /><path
         id="path30"
         style="fill:#211d1d;fill-opacity:1;fill-rule:nonzero;stroke:none"
         d="m 5541.18,1102.06 22.76,0 2.27,-35.49 c 14.1,20.02 41.86,40.95 76.88,40.95 57.78,0 86.44,-36.86 86.44,-98.72 l 0,-127.39 -25.02,0 0,124.65 c 0,52.78 -22.29,79.16 -66.42,79.16 -35.94,0 -60.96,-30.93 -69.15,-44.13 l -2.73,-5 0,-154.68 -25.03,0 0,220.65" /><path
         id="path32"
         style="fill:#211d1d;fill-opacity:1;fill-rule:nonzero;stroke:none"
         d="m 6738.95,1056.57 c -16.34,-19.11 -24.54,-42.32 -24.54,-69.16 l 0,-33.211 c 2.28,-4.09 5.43,-8.64 16.83,-20.929 15.48,-16.829 39.59,-33.665 71.41,-34.571 51.43,0 84.6,37.758 84.6,92.805 0,27.756 -7.7,50.046 -23.18,67.336 -14.99,17.74 -35.46,26.38 -61.42,26.38 -25.9,0 -47.3,-9.55 -63.7,-28.65 z m -24.54,-134.668 0,-138.754 -25.04,0 0,318.912 22.76,0 2.28,-44.59 c 21.83,33.22 52.78,50.05 92.37,50.05 32.25,0 58.21,-11.38 77.33,-34.58 19.55,-22.75 29.1,-50.04 29.1,-81.436 0,-31.387 -9.55,-58.684 -29.1,-81.434 -19.12,-22.285 -45.08,-33.664 -77.33,-33.664 -38.23,0 -69.19,15.012 -92.37,45.496" /><path
         id="path34"
         style="fill:#211d1d;fill-opacity:1;fill-rule:nonzero;stroke:none"
         d="m 7496.87,979.676 c -20.47,7.734 -43.23,11.828 -68.26,11.828 -42.31,0 -63.7,-15.922 -63.7,-47.766 0,-30.937 16.83,-45.496 56.42,-45.496 21.4,0 39.59,6.821 53.71,20.016 14.55,13.656 21.83,30.027 21.83,49.594 l 0,11.824 z m -130.11,114.644 c 19.98,8.64 40.02,13.2 60.06,13.2 27.25,0 50.01,-7.28 67.77,-21.38 18.19,-14.11 27.32,-32.76 27.32,-55.96 l 0,-148.77 -20.54,0 -3.14,35.488 c -17.27,-26.843 -44.16,-40.492 -80.97,-40.492 -52.35,0 -78.25,22.293 -78.25,67.332 0,19.106 8.14,35.028 24.54,48.223 16.4,13.199 38.23,20.019 65.06,20.019 21.83,0 47.29,-5 59.62,-9.1 l 8.64,-3.185 0,26.845 c 0,18.65 -7.28,33.2 -22.32,43.67 -14.56,10.47 -30.46,15.47 -47.73,15.47 -23.68,0 -43.72,-5 -60.06,-15.02 l 0,23.66" /><path
         id="path36"
         style="fill:#211d1d;fill-opacity:1;fill-rule:nonzero;stroke:none"
         d="m 8126.46,1102.06 26.83,0 -148.74,-318.912 -25.53,0 55.57,115.551 -94.66,203.361 26.82,0 62.35,-136.486 c 4.06,-8.644 9.55,-22.293 16.4,-40.945 l 2.71,0 c 3.21,10.922 8.63,24.566 16.34,40.945 l 61.91,136.486" /><path
         id="path38"
         style="fill:#211d1d;fill-opacity:1;fill-rule:nonzero;stroke:none"
         d="m 8898.01,1012.89 0,-131.48 -25.03,0 0,124.65 c 0,52.33 -19.12,78.71 -57.35,78.71 -19.06,0 -34.53,-7.28 -46.81,-22.29 -12.33,-14.57 -18.25,-29.12 -18.25,-43.68 l 0,-137.39 -24.97,0 0,124.2 c 0,53.23 -19.12,79.61 -56.92,79.61 -12.27,0 -23.62,-4.09 -34.53,-12.28 -10.48,-8.19 -18.19,-16.37 -23.25,-24.57 l -7.27,-12.28 0,-154.68 -24.98,0 0,220.65 22.69,0 2.29,-35.49 c 18.19,27.29 41.43,40.95 70.11,40.95 33.17,0 56.85,-15.93 70.05,-47.78 14.55,29.12 40.94,47.78 75.05,47.78 49.57,0 79.17,-32.76 79.17,-94.63" /><path
         id="path40"
         style="fill:#211d1d;fill-opacity:1;fill-rule:nonzero;stroke:none"
         d="m 9510.77,1012.89 c -1.41,47.31 -30.95,72.33 -69.62,72.33 -40.02,0 -68.69,-30.02 -75.97,-72.33 l 145.59,0 z m 10.92,-120.562 c -23.68,-10.457 -48.23,-15.922 -73.75,-15.922 -30.9,0 -56.86,11.379 -77.76,34.121 -20.97,23.203 -31.39,50.953 -31.39,84.161 0,30.032 9.56,56.412 29.1,78.702 19.55,22.75 44.16,34.13 73.7,34.13 26.82,0 49.14,-9.56 66.9,-28.21 17.7,-18.65 26.83,-44.13 26.83,-76.43 0,-2.28 -0.44,-9.099 -0.44,-11.376 l -171.06,0 c 0.87,-26.379 9.07,-48.676 24.55,-66.418 15.91,-17.746 35.95,-26.387 60.06,-26.387 26.82,0 50.93,6.821 73.26,20.93 l 0,-27.301" /><path
         id="path42"
         style="fill:#211d1d;fill-opacity:1;fill-rule:nonzero;stroke:none"
         d="m 9975.66,1102.06 22.76,0 2.28,-35.49 c 14.1,20.02 41.8,40.95 76.9,40.95 57.7,0 86.4,-36.86 86.4,-98.72 l 0,-127.39 -25.1,0 0,124.65 c 0,52.78 -22.2,79.16 -66.4,79.16 -35.9,0 -60.9,-30.93 -69.1,-44.13 l -2.7,-5 0,-154.68 -25.04,0 0,220.65" /><path
         id="path44"
         style="fill:#211d1d;fill-opacity:1;fill-rule:nonzero;stroke:none"
         d="m 10711.3,880.504 c -6,-1.371 -11,-2.277 -15.1,-2.277 -22.3,0 -39.5,7.277 -52.3,21.836 -12.7,14.558 -19.1,32.3 -19.1,53.683 l 0,127.384 -31.8,0 0,20.93 31.8,0 0,50.49 25,9.11 0,-59.6 61.5,0 0,-20.93 -61.5,0 0,-129.657 c 0,-27.75 17.8,-50.953 45.5,-50.953 6,0 11.4,0.906 16,2.273 l 0,-22.289" /><path
         id="path46"
         style="fill:#211d1d;fill-opacity:1;fill-rule:nonzero;stroke:none"
         d="m 11789.8,979.676 c -20.4,7.734 -43.2,11.828 -68.2,11.828 -42.3,0 -63.7,-15.922 -63.7,-47.766 0,-30.937 16.9,-45.496 56.4,-45.496 21.4,0 39.6,6.821 53.7,20.016 14.6,13.656 21.8,30.027 21.8,49.594 l 0,11.824 z m -130.1,114.644 c 20.1,8.64 40,13.2 60.1,13.2 27.3,0 50,-7.28 67.8,-21.38 18.1,-14.11 27.3,-32.76 27.3,-55.96 l 0,-148.77 -20.5,0 -3.2,35.488 c -17.3,-26.843 -44.1,-40.492 -81,-40.492 -52.3,0 -78.2,22.293 -78.2,67.332 0,19.106 8.2,35.028 24.5,48.223 16.4,13.199 38.2,20.019 65.1,20.019 21.9,0 47.3,-5 59.6,-9.1 l 8.6,-3.185 0,26.845 c 0,18.65 -7.2,33.2 -22.2,43.67 -14.6,10.47 -30.6,15.47 -47.8,15.47 -23.7,0 -43.7,-5 -60.1,-15.02 l 0,23.66" /><path
         id="path48"
         style="fill:#211d1d;fill-opacity:1;fill-rule:nonzero;stroke:none"
         d="m 12293.4,1067.48 c 5.9,10.46 16,19.56 29.2,26.84 13.6,7.28 26.8,10.92 40,10.92 5,0 9,-0.45 11.8,-0.91 l 0,-24.57 c -5.5,0.46 -9.5,0.92 -11.8,0.92 -46,0 -69.2,-29.58 -69.2,-88.27 l 0,-111 -25,0 0,220.65 22.8,0 2.2,-34.58" /><path
         id="path50"
         style="fill:#211d1d;fill-opacity:1;fill-rule:nonzero;stroke:none"
         d="m 12943.9,1012.89 c -1.3,47.31 -30.9,72.33 -69.6,72.33 -40,0 -68.7,-30.02 -75.9,-72.33 l 145.5,0 z m 11,-120.562 c -23.7,-10.457 -48.3,-15.922 -73.7,-15.922 -31,0 -56.9,11.379 -77.8,34.121 -21,23.203 -31.4,50.953 -31.4,84.161 0,30.032 9.5,56.412 29.1,78.702 19.6,22.75 44.1,34.13 73.7,34.13 26.8,0 49.1,-9.56 66.9,-28.21 17.7,-18.65 26.8,-44.13 26.8,-76.43 0,-2.28 -0.4,-9.099 -0.4,-11.376 l -171.1,0 c 0.9,-26.379 9.1,-48.676 24.5,-66.418 16,-17.746 36,-26.387 60.1,-26.387 26.9,0 51,6.821 73.3,20.93 l 0,-27.301" /><path
         id="path52"
         style="fill:#211d1d;fill-opacity:1;fill-rule:nonzero;stroke:none"
         d="m 13551.7,979.676 c -20.5,7.734 -43.2,11.828 -68.3,11.828 -42.3,0 -63.6,-15.922 -63.6,-47.766 0,-30.937 16.8,-45.496 56.4,-45.496 21.4,0 39.6,6.821 53.7,20.016 14.5,13.656 21.8,30.027 21.8,49.594 l 0,11.824 z m -130.1,114.644 c 20,8.64 40,13.2 60.1,13.2 27.2,0 50,-7.28 67.7,-21.38 18.2,-14.11 27.4,-32.76 27.4,-55.96 l 0,-148.77 -20.5,0 -3.2,35.488 c -17.3,-26.843 -44.2,-40.492 -81,-40.492 -52.3,0 -78.2,22.293 -78.2,67.332 0,19.106 8.2,35.028 24.5,48.223 16.4,13.199 38.2,20.019 65,20.019 21.9,0 47.4,-5 59.7,-9.1 l 8.6,-3.185 0,26.845 c 0,18.65 -7.3,33.2 -22.3,43.67 -14.6,10.47 -30.5,15.47 -47.7,15.47 -23.7,0 -43.8,-5 -60.1,-15.02 l 0,23.66" /><path
         id="path54"
         style="fill:#1a468e;fill-opacity:1;fill-rule:nonzero;stroke:none"
         d="m 1333.66,2964.22 165.12,0 c 83.17,0 189.74,0 282.92,69.89 79.89,63.27 119.82,163.12 119.82,259.59 0,123.15 -59.89,206.38 -123.11,253.01 -89.89,63.23 -203.03,69.85 -306.27,69.85 l -138.48,0 0,-652.34 z m 201.75,1025.12 c 249.63,0 422.7,-26.58 585.82,-169.74 179.7,-159.73 226.34,-376.07 226.34,-535.86 0,-86.51 -13.34,-326.14 -183.12,-495.93 C 2041.34,2664.66 1858.22,2591.48 1602,2591.48 l -268.34,0 0,-822.16 -443.926,0 0,2220.02 645.676,0" /><path
         id="path56"
         style="fill:#1a468e;fill-opacity:1;fill-rule:nonzero;stroke:none"
         d="m 3235.4,2967.56 111.9,0 c 83.18,0 425.96,10 425.96,336.14 0,329.53 -339.48,332.86 -419.33,332.86 l -118.53,0 0,-669 z m 198.38,1021.78 c 306.22,0 462.63,-79.84 565.86,-166.36 169.74,-143.12 219.66,-332.86 219.66,-499.31 0,-216.34 -86.55,-406.04 -259.59,-522.48 -56.59,-40.01 -136.48,-76.6 -243,-96.56 l 692.3,-935.31 -539.23,0 -592.45,887.98 -41.95,0 0,-887.98 -443.89,0 0,2220.02 642.29,0" /><path
         id="path58"
         style="fill:#1a468e;fill-opacity:1;fill-rule:nonzero;stroke:none"
         d="m 8514.46,3483.41 c -129.81,173.04 -282.92,189.75 -362.78,189.75 -232.96,0 -306.22,-146.45 -306.22,-259.64 0,-53.26 16.65,-103.19 69.93,-149.82 53.21,-49.84 126.53,-76.47 266.32,-126.44 173.04,-59.89 336.14,-119.77 449.29,-222.96 99.84,-89.9 189.68,-239.67 189.68,-466.01 0,-432.67 -312.82,-728.9 -772.16,-728.9 -409.39,0 -649.02,249.6 -765.5,419.38 l 282.91,269.64 c 106.5,-216.37 309.5,-296.27 466,-296.27 196.28,0 342.73,119.82 342.73,306.27 0,79.8 -26.51,143.07 -86.45,199.71 -83.25,76.51 -216.38,119.72 -342.85,162.98 -116.49,40.01 -256.28,93.27 -369.5,193.09 -73.13,63.22 -176.36,186.36 -176.36,412.7 0,326.19 219.65,652.38 712.29,652.38 139.73,0 402.67,-26.63 629.04,-259.63 l -226.37,-296.23" /><path
         id="path60"
         style="fill:#1a468e;fill-opacity:1;fill-rule:nonzero;stroke:none"
         d="m 10194.9,3598.71 0,-1829.39 -444.01,0 0,1831.45 -491.71,0 0,388.57 1431.22,0 0,-390.63 -495.5,0" /><path
         id="path62"
         style="fill:#1a468e;fill-opacity:1;fill-rule:nonzero;stroke:none"
         d="m 11128.6,1769.32 443.922,0 0,2220.02 -443.922,0 0,-2220.02 z" /><path
         id="path64"
         style="fill:#1a468e;fill-opacity:1;fill-rule:nonzero;stroke:none"
         d="m 12454.8,2967.56 111.8,0 c 83.2,0 426,10 426,336.14 0,329.53 -339.5,332.86 -419.3,332.86 l -118.5,0 0,-669 z m 198.3,1021.78 c 306.3,0 462.6,-79.84 565.9,-166.36 169.7,-143.12 219.6,-332.86 219.6,-499.31 0,-216.34 -86.6,-406.04 -259.6,-522.48 -56.5,-40.01 -136.4,-76.6 -242.9,-96.56 l 692.2,-935.31 -539.1,0 -592.5,892.05 -41.9,0 0,-892.05 -444,0 0,2220.02 642.3,0" /><path
         id="path66"
         style="fill:#fbc709;fill-opacity:1;fill-rule:nonzero;stroke:none"
         d="m 5649.01,2876.53 c -0.04,0.94 -0.17,1.84 -0.17,2.78 0,123.96 100.5,224.42 224.42,224.42 123.96,0 224.45,-100.46 224.45,-224.42 0,-123.49 -99.72,-223.56 -223,-224.37 l 0,-303.02 c 290.63,0.77 526.01,236.56 526.01,527.39 0,291.35 -236.19,527.44 -527.46,527.44 -291.27,0 -527.44,-236.09 -527.44,-527.44 0,-0.94 0.13,-1.84 0.13,-2.78 l 303.06,0" /><path
         id="path68"
         style="fill:#1a468e;fill-opacity:1;fill-rule:nonzero;stroke:none"
         d="m 6650.52,3260.58 c 56.43,-115.03 88.25,-244.42 88.25,-381.24 0,-478.76 -388.12,-866.96 -866.93,-866.96 -478.79,0 -866.87,388.2 -866.87,866.96 0,461.52 360.69,838.7 815.62,865.25 l 216.12,330.97 c -53.94,7.4 -108.91,11.54 -164.87,11.54 -666.99,0 -1207.81,-540.73 -1207.81,-1207.76 0,-667.05 540.82,-1207.78 1207.81,-1207.78 667.07,0 1207.75,540.73 1207.75,1207.78 0,260.05 -82.45,500.84 -222.37,697.89 l -206.7,-316.65" /></g></g></svg>