<?xml version="1.0" encoding="UTF-8" standalone="no"?>
<svg
   xmlns:dc="http://purl.org/dc/elements/1.1/"
   xmlns:cc="http://creativecommons.org/ns#"
   xmlns:rdf="http://www.w3.org/1999/02/22-rdf-syntax-ns#"
   xmlns:svg="http://www.w3.org/2000/svg"
   xmlns="http://www.w3.org/2000/svg"
   viewBox="0 0 2973.175 989.125"
   height="989.125"
   width="2973.175"
   xml:space="preserve"
   version="1.1"
   id="svg2"><metadata
     id="metadata8"><rdf:RDF><cc:Work
         rdf:about=""><dc:format>image/svg+xml</dc:format><dc:type
           rdf:resource="http://purl.org/dc/dcmitype/StillImage" /></cc:Work></rdf:RDF></metadata><defs
     id="defs6" /><g
     transform="matrix(1.25,0,0,-1.25,0,989.125)"
     id="g10"><g
       transform="scale(0.162168,0.162168)"
       id="g12"><path
         id="path14"
         style="fill:#244991;fill-opacity:1;fill-rule:nonzero;stroke:none"
         d="m 887.988,965.273 377.372,0 0,-526.843 -60.68,0 0,468.386 -256.02,0 0,-468.386 -60.672,0 0,526.843" /><path
         id="path16"
         style="fill:#244991;fill-opacity:1;fill-rule:nonzero;stroke:none"
         d="m 1738.95,907.555 0,-219.762 82.14,0 c 77.68,0 128.75,43.66 128.75,110.992 0,65.852 -51.8,108.77 -129.49,108.77 l -81.4,0 z m -60.67,57.718 143.54,0 c 59.94,0 106.56,-15.539 139.86,-47.359 33.29,-31.82 50.31,-71.039 50.31,-119.129 0,-55.492 -18.5,-97.672 -55.49,-126.531 -37,-28.117 -84.36,-42.176 -142.07,-42.176 l -75.48,0 0,-191.648 -60.67,0 0,526.843" /><path
         id="path18"
         style="fill:#244991;fill-opacity:1;fill-rule:nonzero;stroke:none"
         d="m 2774.89,550.16 c 38.48,41.438 57.72,91.758 57.72,151.688 0,59.937 -19.24,110.257 -57.72,151.695 -37.73,41.434 -86.57,62.152 -146.51,62.152 -59.93,0 -108.77,-20.718 -147.24,-62.152 -38.48,-41.438 -57.72,-91.758 -57.72,-151.695 0,-59.93 19.24,-110.25 56.97,-151.688 38.48,-40.695 88.06,-61.418 147.99,-61.418 59.94,0 108.78,20.723 146.51,61.418 z m -146.51,423.985 c 74,0 136.89,-26.633 188.69,-79.168 52.54,-52.536 78.43,-116.911 78.43,-193.129 0,-76.211 -25.89,-140.59 -78.43,-193.121 -51.8,-52.539 -114.69,-78.438 -188.69,-78.438 -73.99,0 -136.88,25.899 -189.42,78.438 -51.8,52.531 -77.7,116.91 -77.7,193.121 0,76.218 25.9,140.593 77.7,193.129 52.54,52.535 115.43,79.168 189.42,79.168" /><path
         id="path20"
         style="fill:#244991;fill-opacity:1;fill-rule:nonzero;stroke:none"
         d="m 3649.54,464.328 c -43.66,-22.937 -86.58,-34.039 -127.27,-34.039 -73.99,0 -136.89,25.899 -189.42,78.438 -51.8,52.531 -77.7,116.91 -77.7,193.121 0,76.218 25.9,140.593 77.7,193.129 52.53,52.535 115.43,79.168 189.42,79.168 44.4,0 86.57,-11.098 127.27,-33.293 l 0,-68.809 c -39.22,28.852 -82.13,43.652 -127.27,43.652 -59.93,0 -108.77,-20.718 -147.25,-62.152 -38.47,-41.438 -57.71,-91.758 -57.71,-151.695 0,-59.2 19.24,-109.508 57.71,-151.688 38.48,-41.433 87.32,-62.152 147.25,-62.152 42.92,0 85.1,14.058 127.27,42.18 l 0,-65.86" /><path
         id="path22"
         style="fill:#244991;fill-opacity:1;fill-rule:nonzero;stroke:none"
         d="m 4188.25,906.816 0,-468.386 -61.42,0 0,468.386 -133.19,0 0,58.457 327.79,0 0,-58.457 -133.18,0" /><path
         id="path24"
         style="fill:#244991;fill-opacity:1;fill-rule:nonzero;stroke:none"
         d="m 4686.25,438.43 60.6719,0 0,526.844 -60.6719,0 0,-526.844 z" /><path
         id="path26"
         style="fill:#244991;fill-opacity:1;fill-rule:nonzero;stroke:none"
         d="m 5692.6,907.555 0,-219.762 82.13,0 c 77.7,0 128.76,43.66 128.76,110.992 0,65.852 -51.79,108.77 -129.49,108.77 l -81.4,0 z m -60.67,57.718 143.54,0 c 59.94,0 106.56,-15.539 139.86,-47.359 33.29,-31.82 50.31,-71.039 50.31,-119.129 0,-55.492 -18.5,-97.672 -55.49,-126.531 -37,-28.117 -84.36,-42.176 -142.07,-42.176 l -75.48,0 0,-191.648 -60.67,0 0,526.843" /><path
         id="path28"
         style="fill:#244991;fill-opacity:1;fill-rule:nonzero;stroke:none"
         d="m 6728.53,550.16 c 38.48,41.438 57.72,91.758 57.72,151.688 0,59.937 -19.24,110.257 -57.72,151.695 -37.74,41.434 -86.58,62.152 -146.51,62.152 -59.94,0 -108.78,-20.718 -147.26,-62.152 -38.48,-41.438 -57.72,-91.758 -57.72,-151.695 0,-59.93 19.24,-110.25 56.98,-151.688 38.48,-40.695 88.06,-61.418 148,-61.418 59.93,0 108.77,20.723 146.51,61.418 z m -146.51,423.985 c 73.99,0 136.89,-26.633 188.69,-79.168 52.54,-52.536 78.43,-116.911 78.43,-193.129 0,-76.211 -25.89,-140.59 -78.43,-193.121 -51.8,-52.539 -114.7,-78.438 -188.69,-78.438 -74,0 -136.9,25.899 -189.44,78.438 -51.8,52.531 -77.7,116.91 -77.7,193.121 0,76.218 25.9,140.593 77.7,193.129 52.54,52.535 115.44,79.168 189.44,79.168" /><path
         id="path30"
         style="fill:#244991;fill-opacity:1;fill-rule:nonzero;stroke:none"
         d="m 7278.33,692.969 0,52.539 46.62,0 c 64.38,0 106.55,36.258 106.55,81.39 0,25.899 -9.61,46.625 -28.11,63.645 -18.5,17.012 -40.7,25.891 -66.6,25.891 -39.22,0 -78.44,-11.098 -117.66,-34.039 l 0,65.859 c 37,17.019 76.22,25.891 117.66,25.891 45.14,0 82.14,-14.051 111.73,-42.172 30.34,-28.118 45.14,-63.637 45.14,-105.809 0,-46.617 -21.46,-82.137 -63.64,-105.078 51.06,-23.68 80.66,-71.777 80.66,-125.047 0,-46.621 -17.02,-86.574 -51.05,-118.391 -33.31,-31.82 -74.74,-47.359 -124.32,-47.359 -43.66,0 -83.62,7.399 -121.36,22.941 l 0,65.118 c 36.26,-19.981 76.22,-30.34 121.36,-30.34 31.82,0 59.2,10.359 80.65,30.34 21.47,19.972 32.56,45.879 32.56,76.215 0,56.972 -51.79,98.406 -123.57,98.406 l -46.62,0" /><path
         id="path32"
         style="fill:#244991;fill-opacity:1;fill-rule:nonzero;stroke:none"
         d="m 7962.07,907.555 0,-219.762 82.13,0 c 77.7,0 128.76,43.66 128.76,110.992 0,65.852 -51.8,108.77 -129.5,108.77 l -81.39,0 z m -60.68,57.718 143.56,0 c 59.93,0 106.55,-15.539 139.85,-47.359 33.3,-31.82 50.32,-71.039 50.32,-119.129 0,-55.492 -18.5,-97.672 -55.5,-126.531 -37,-28.117 -84.36,-42.176 -142.08,-42.176 l -75.47,0 0,-191.648 -60.68,0 0,526.843" /><path
         id="path34"
         style="fill:#244991;fill-opacity:1;fill-rule:nonzero;stroke:none"
         d="m 8866.32,618.969 -77.7,179.816 c -14.06,32.559 -23.68,56.238 -28.12,71.77 l -3.7,0 c -5.92,-18.5 -15.54,-42.918 -28.12,-72.512 l -79.18,-179.074 216.82,0 z m -126.54,346.304 36.26,0 234.57,-526.843 -66.59,0 -52.54,122.828 -267.14,0 -51.79,-122.828 -66.6,0 233.83,526.843" /><path
         id="path36"
         style="fill:#244991;fill-opacity:1;fill-rule:nonzero;stroke:none"
         d="m 9335.46,965.273 74.74,0 91.01,-143.554 c 11.1,-18.5 21.47,-36.254 29.6,-54.754 l 4.44,0 c 11.84,24.414 21.46,42.172 28.86,53.273 l 91.76,145.035 75.48,0 -162.06,-251.585 176.12,-275.258 -73.26,0 -106.56,167.968 c -9.62,14.059 -19.24,32.559 -30.34,54.016 l -4.44,0 c -8.13,-17.766 -18.5,-36.258 -30.33,-54.758 l -107.3,-167.226 -73.26,0 176.85,274.523 -161.31,252.32" /><path
         id="path38"
         style="fill:#244991;fill-opacity:1;fill-rule:nonzero;stroke:none"
         d="m 10171.6,438.43 -68.8,0 125.1,221.984 -172.4,304.859 69.5,0 105.8,-183.507 c 10.4,-18.5 20,-37.739 29.6,-58.457 l 4.5,0 c 5.1,13.324 15.5,32.558 30.3,57.714 l 105.8,184.25 69.6,0 -299,-526.843" /><path
         id="path40"
         style="fill:#244991;fill-opacity:1;fill-rule:nonzero;stroke:none"
         d="m 11148.4,746.246 0,219.027 60.7,0 0,-526.843 -60.7,0 0,247.879 -256.8,0 0,-247.879 -60.7,0 0,526.843 60.7,0 0,-219.027 256.8,0" /><path
         id="path42"
         style="fill:#244991;fill-opacity:1;fill-rule:nonzero;stroke:none"
         d="m 11783.3,720.348 c 31.8,-6.66 59.9,-19.235 80.7,-31.075 21.4,-11.839 41.4,-34.785 54,-50.316 14,-14.801 28.1,-46.617 34.8,-63.637 3.6,-8.14 8.1,-20.722 12.5,-37 5.2,-15.535 8.2,-28.113 10.4,-37 l 10.4,-39.211 5.9,-23.679 -62.9,0 c -15.6,60.675 -25.9,98.41 -31.1,112.468 -20.7,52.54 -53.3,88.059 -98.4,105.817 -28.1,10.355 -61.4,15.539 -100.7,15.539 l -14.8,0 0,-233.824 -61.4,0 0,526.843 61.4,0 0,-233.82 28.9,0 200.5,233.82 78.5,0 -208.7,-244.925" /><path
         id="path44"
         style="fill:#244991;fill-opacity:1;fill-rule:nonzero;stroke:none"
         d="m 12370.1,438.43 0,526.843 60.7,0 0,-324.835 c 0,-17.762 -0.8,-45.141 -3,-82.872 l 3.7,0 c 5.9,11.832 20,33.293 42.9,65.11 l 250.9,342.597 51.8,0 0,-526.843 -60.7,0 0,344.816 c 0,24.418 0.7,50.313 2.2,76.957 l -2.9,0 c -22.2,-34.039 -38.5,-57.719 -48.1,-71.777 l -257.5,-349.996 -40,0" /><path
         id="path46"
         style="fill:#244991;fill-opacity:1;fill-rule:nonzero;stroke:none"
         d="m 10516.2,3599.3 0,-1827.61 -443.6,0 0,1829.66 -491.22,0 0,388.2 1429.72,0 0,-390.25 -494.9,0" /><path
         id="path48"
         style="fill:#244991;fill-opacity:1;fill-rule:nonzero;stroke:none"
         d="m 2663.7,3991.6 0,-2219.91 -443.72,0 0,1830.12 -886.74,0 0,-1830.12 -445.271,0 0,2219.91 1775.731,0" /><path
         id="path50"
         style="fill:#244991;fill-opacity:1;fill-rule:nonzero;stroke:none"
         d="m 3549.27,2966.47 165.68,0 c 83.17,0 189.71,0 282.89,69.94 79.89,63.26 119.78,163.12 119.78,259.62 0,123.14 -59.89,206.36 -123.1,252.92 -89.86,63.3 -203,69.89 -306.18,69.89 l -139.07,0 0,-652.37 z m 202.28,1025.13 c 249.65,0 422.68,-26.65 585.75,-169.76 179.72,-159.75 226.33,-376.12 226.33,-535.86 0,-86.45 -13.33,-326.1 -183.04,-495.85 -123.14,-123.15 -306.21,-196.41 -562.47,-196.41 l -268.85,0 0,-822.03 -443.41,0 0,2219.91 645.69,0" /><path
         id="path52"
         style="fill:#244991;fill-opacity:1;fill-rule:nonzero;stroke:none"
         d="m 9138.2,1851.14 c -133.08,-69.86 -309.5,-129.85 -549.25,-129.85 -389.54,0 -625.84,133.13 -812.18,309.6 -256.41,246.39 -356.18,522.61 -356.18,848.91 0,402.75 166.43,692.35 356.18,868.78 222.98,209.77 499.23,292.95 815.51,292.95 156.44,0 342.92,-26.65 545.92,-136.49 l 0,-506.01 c -203,233.06 -456.07,249.71 -535.87,249.71 -446.14,0 -735.72,-366.19 -735.72,-775.63 0,-492.68 379.55,-759.03 752.31,-759.03 206.45,0 389.47,89.88 519.28,243.02 l 0,-505.96" /><path
         id="path54"
         style="fill:#244991;fill-opacity:1;fill-rule:nonzero;stroke:none"
         d="m 11455.9,1772 443.488,0 0,2220.37 -443.488,0 0,-2220.37 z" /><path
         id="path56"
         style="fill:#244991;fill-opacity:1;fill-rule:nonzero;stroke:none"
         d="m 12786.1,2966.72 165.7,0 c 83.2,0 189.8,0 283,69.96 79.9,63.26 119.8,163.14 119.8,259.66 0,123.17 -59.9,206.41 -123.2,252.98 -89.8,63.31 -203,69.91 -306.3,69.91 l -139,0 0,-652.51 z m 202.4,1025.34 c 249.6,0 422.7,-26.65 585.8,-169.79 179.8,-159.79 226.4,-376.2 226.4,-535.98 0,-86.47 -13.3,-326.16 -183.1,-495.96 -123.2,-123.17 -306.2,-196.44 -562.6,-196.44 l -268.9,0 0,-822.2 -443.4,0 0,2220.37 645.8,0" /><path
         id="path58"
         style="fill:#fbc707;fill-opacity:1;fill-rule:nonzero;stroke:none"
         d="m 5769.13,2871.52 c 0,0.93 -0.13,1.86 -0.13,2.78 0,123.97 100.5,224.56 224.51,224.56 123.97,0 224.5,-100.59 224.5,-224.56 0,-123.43 -99.78,-223.62 -223.08,-224.38 l 0,-303.09 c 290.72,0.8 526.1,236.6 526.1,527.47 0,291.37 -236.18,527.57 -527.52,527.57 -291.36,0 -527.56,-236.2 -527.56,-527.57 0,-0.92 0.13,-1.85 0.13,-2.78 l 303.05,0" /><path
         id="path60"
         style="fill:#244991;fill-opacity:1;fill-rule:nonzero;stroke:none"
         d="m 6770.83,3262.77 c 56.55,-115.12 88.3,-244.48 88.3,-381.38 0,-478.82 -388.24,-867.01 -867.03,-867.01 -478.87,0 -867.06,388.19 -867.06,867.01 0,461.59 360.83,838.9 815.74,865.41 l 216.24,331.08 c -53.97,7.4 -108.97,11.56 -164.92,11.56 -667.21,0 -1208.01,-540.85 -1208.01,-1208.05 0,-667.12 540.8,-1207.96 1208.01,-1207.96 667.18,0 1207.98,540.84 1207.98,1207.96 0,260.15 -82.51,500.91 -222.43,698.1 l -206.82,-316.72" /></g></g></svg>