<svg id="svg" version="1.1" width="400" height="105.26315789473685" xmlns="http://www.w3.org/2000/svg" xmlns:xlink="http://www.w3.org/1999/xlink" style="display: block;"><g id="svgg"><path id="path0" d="" stroke="none" fill="#003399" fill-rule="evenodd"></path><path id="path1" d="" stroke="none" fill="#0000ff" fill-rule="evenodd"></path><path id="path2" d="M110.042 62.250 C 110.044 62.617,110.078 62.747,110.118 62.540 C 110.158 62.332,110.156 62.032,110.115 61.873 C 110.073 61.714,110.040 61.883,110.042 62.250 " stroke="none" fill="#0055ff" fill-rule="evenodd"></path><path id="path3" d="M0.000 52.536 C 0.000 82.213,0.035 87.534,0.228 87.327 C 0.354 87.193,0.983 86.221,1.627 85.167 C 3.921 81.410,6.332 77.573,6.811 76.917 C 7.079 76.550,7.768 75.462,8.342 74.500 C 8.916 73.537,9.922 71.925,10.576 70.917 C 11.231 69.908,12.126 68.465,12.566 67.708 C 13.005 66.952,13.432 66.292,13.513 66.242 C 13.639 66.164,14.625 64.568,16.112 62.034 C 16.312 61.694,16.540 61.342,16.619 61.250 C 16.753 61.096,17.259 60.322,18.386 58.545 C 18.632 58.158,18.837 57.783,18.842 57.712 C 18.847 57.641,19.141 57.171,19.496 56.667 C 19.850 56.163,20.645 54.925,21.263 53.917 C 21.881 52.908,22.777 51.483,23.255 50.750 C 23.733 50.017,24.593 48.629,25.167 47.667 C 25.740 46.704,26.406 45.654,26.646 45.334 C 27.188 44.612,29.167 41.305,29.167 41.122 C 29.167 40.861,27.469 38.469,26.829 37.829 C 26.690 37.690,25.909 36.677,25.094 35.579 C 24.280 34.482,23.476 33.433,23.309 33.250 C 22.810 32.704,20.833 30.122,20.833 30.015 C 20.833 29.961,20.527 29.579,20.153 29.167 C 19.779 28.754,19.064 27.841,18.564 27.137 C 18.064 26.433,17.335 25.495,16.944 25.053 C 16.553 24.612,15.701 23.537,15.051 22.667 C 14.401 21.796,13.655 20.846,13.393 20.555 C 13.131 20.264,12.504 19.460,12.000 18.767 L 11.083 17.507 5.542 17.504 L 0.000 17.500 0.000 52.536 M44.500 38.357 L 44.500 59.214 43.859 58.482 C 43.217 57.748,40.169 54.005,38.309 51.667 C 35.846 48.569,35.926 48.616,35.248 49.875 C 34.988 50.356,34.291 51.500,33.698 52.417 C 32.258 54.642,30.500 57.489,30.500 57.593 C 30.500 57.639,30.080 58.277,29.567 59.009 C 28.478 60.562,28.438 60.310,30.115 62.421 C 30.841 63.335,31.671 64.421,31.960 64.833 C 32.248 65.246,32.788 65.921,33.159 66.333 C 33.530 66.746,34.039 67.383,34.290 67.750 C 34.540 68.117,35.159 68.927,35.664 69.552 C 36.170 70.176,36.733 70.888,36.917 71.135 C 37.262 71.600,38.859 73.665,40.167 75.337 C 40.579 75.865,41.400 76.924,41.991 77.690 C 42.582 78.456,43.145 79.164,43.241 79.263 C 43.338 79.362,43.792 79.950,44.250 80.569 C 44.708 81.189,45.458 82.147,45.917 82.698 C 46.375 83.250,47.087 84.170,47.500 84.744 C 47.913 85.318,48.536 86.135,48.886 86.560 L 49.522 87.333 53.011 87.333 L 56.500 87.333 56.500 52.417 L 56.500 17.500 50.500 17.500 L 44.500 17.500 44.500 38.357 M190.833 18.645 L 184.750 19.595 184.707 29.981 C 184.673 38.174,184.620 40.351,184.457 40.289 C 179.326 38.327,173.330 38.070,168.471 39.601 C 163.330 41.223,158.900 45.585,156.982 50.917 C 156.784 51.467,156.568 51.992,156.502 52.083 C 156.435 52.175,156.184 52.962,155.943 53.833 C 154.267 59.885,154.573 69.043,156.600 73.467 C 156.839 73.989,157.153 74.717,157.298 75.083 C 158.212 77.394,161.189 81.236,162.990 82.429 C 163.316 82.645,163.921 83.061,164.333 83.354 C 164.746 83.647,165.496 84.074,166.000 84.304 C 166.504 84.534,166.956 84.779,167.003 84.850 C 168.232 86.674,179.472 87.728,187.333 86.757 C 191.701 86.217,197.005 85.195,197.408 84.816 C 197.495 84.734,197.702 84.667,197.867 84.667 C 198.155 84.667,198.167 83.315,198.167 51.167 L 198.167 17.667 197.542 17.681 C 197.198 17.689,194.179 18.123,190.833 18.645 M271.000 18.408 C 268.571 18.793,265.890 19.208,265.042 19.328 L 263.500 19.548 263.500 46.595 C 263.500 74.517,263.508 74.871,264.191 77.583 C 265.657 83.400,271.683 86.833,280.425 86.833 C 281.383 86.833,282.167 86.788,282.167 86.734 C 282.167 86.323,283.218 80.179,283.333 79.917 C 283.493 79.552,284.000 76.591,284.000 76.021 C 284.000 75.730,283.900 75.667,283.439 75.667 C 280.844 75.667,278.442 74.337,277.568 72.417 C 276.850 70.839,276.833 70.175,276.833 43.321 L 276.833 17.667 276.125 17.687 C 275.735 17.698,273.429 18.023,271.000 18.408 M297.371 18.638 L 291.326 19.575 291.378 47.412 C 291.426 73.529,291.448 75.327,291.729 76.500 C 293.337 83.205,298.300 86.438,307.516 86.784 L 310.115 86.881 310.978 81.566 C 312.040 75.023,312.071 75.737,310.719 75.611 C 308.187 75.374,306.120 74.124,305.367 72.374 C 304.692 70.807,304.667 69.733,304.667 43.213 L 304.667 17.667 304.042 17.684 C 303.698 17.693,300.696 18.123,297.371 18.638 M130.947 25.954 C 130.688 25.993,129.188 26.249,127.613 26.522 C 126.039 26.796,123.513 27.223,122.000 27.471 L 119.250 27.920 119.250 49.252 C 119.250 70.567,119.310 73.138,119.834 74.152 C 119.910 74.298,120.061 74.867,120.170 75.417 C 120.920 79.192,123.842 83.399,126.471 84.488 C 126.762 84.608,127.000 84.763,127.000 84.831 C 127.000 85.012,128.859 85.816,130.140 86.188 C 135.351 87.703,145.248 87.088,149.629 84.976 C 150.365 84.622,150.469 84.114,149.999 83.167 C 149.930 83.029,149.552 81.025,149.158 78.712 C 148.315 73.768,148.423 74.042,147.481 74.470 C 143.868 76.111,136.729 76.023,135.022 74.316 C 132.866 72.161,132.680 70.993,132.672 59.625 L 132.667 50.500 140.500 50.500 L 148.333 50.500 148.333 45.000 L 148.333 39.500 140.500 39.500 L 132.667 39.500 132.667 32.667 L 132.667 25.833 132.042 25.858 C 131.698 25.872,131.205 25.915,130.947 25.954 M84.583 38.569 C 82.124 39.045,79.954 39.770,78.524 40.594 C 75.572 42.296,75.034 42.682,73.439 44.243 C 69.845 47.762,67.316 52.801,66.745 57.583 C 66.679 58.133,66.553 58.674,66.465 58.785 C 66.174 59.149,66.214 67.333,66.506 67.333 C 66.568 67.333,66.666 67.784,66.724 68.336 C 66.987 70.856,68.538 75.511,69.564 76.860 C 69.866 77.258,70.212 77.771,70.331 78.000 C 71.533 80.306,76.317 84.141,79.433 85.296 C 83.405 86.767,84.838 87.016,89.917 87.119 C 94.173 87.205,96.667 87.033,100.330 86.401 C 102.869 85.963,106.167 85.066,106.167 84.814 C 106.167 84.747,106.397 84.643,106.678 84.581 C 107.374 84.428,107.386 84.339,106.998 82.249 C 106.811 81.241,106.389 78.833,106.061 76.898 L 105.464 73.380 103.857 73.903 C 102.973 74.190,102.170 74.475,102.073 74.536 C 101.774 74.724,98.677 75.303,96.870 75.508 C 88.000 76.517,82.024 74.033,80.435 68.678 C 79.932 66.982,78.165 67.167,94.894 67.167 L 109.621 67.167 109.727 66.393 C 109.786 65.968,109.839 65.087,109.846 64.435 C 109.852 63.783,109.914 62.853,109.983 62.367 C 110.052 61.881,110.059 61.453,109.997 61.415 C 109.936 61.377,109.839 60.349,109.782 59.131 C 109.576 54.740,108.083 49.158,106.652 47.438 C 106.566 47.335,106.199 46.803,105.837 46.257 C 104.543 44.307,101.262 41.369,99.895 40.936 C 99.699 40.874,99.375 40.681,99.174 40.506 C 97.348 38.923,88.695 37.774,84.583 38.569 M226.000 38.669 C 217.949 40.092,211.408 46.096,208.935 54.333 C 207.247 59.956,207.629 68.920,209.748 73.417 C 209.964 73.875,210.331 74.684,210.564 75.215 C 212.645 79.958,217.934 84.604,223.032 86.169 C 229.100 88.031,237.696 87.318,242.123 84.586 C 242.794 84.172,243.381 83.833,243.428 83.833 C 244.082 83.833,247.979 80.173,248.988 78.612 C 249.353 78.046,249.795 77.396,249.970 77.167 C 251.132 75.642,252.757 70.993,253.087 68.250 C 253.154 67.700,253.287 67.151,253.384 67.030 C 253.706 66.628,253.628 58.333,253.302 58.333 C 253.228 58.333,253.167 58.088,253.167 57.787 C 253.167 57.487,252.945 56.333,252.674 55.223 C 249.719 43.124,238.876 36.395,226.000 38.669 M332.583 38.442 C 332.308 38.474,331.371 38.578,330.500 38.674 C 328.500 38.895,325.221 39.439,323.917 39.768 C 321.577 40.358,321.667 40.318,321.667 40.759 C 321.667 41.530,323.002 50.082,323.168 50.373 C 323.259 50.532,323.333 50.813,323.333 50.998 C 323.333 51.467,323.429 51.452,325.116 50.723 C 327.102 49.865,335.811 49.172,338.570 49.652 C 342.335 50.308,344.252 52.422,344.460 56.147 L 344.548 57.712 344.066 57.619 C 343.800 57.569,343.283 57.440,342.917 57.334 C 341.242 56.848,332.029 56.967,330.750 57.492 C 330.567 57.567,329.629 57.814,328.667 58.042 C 320.151 60.052,316.215 66.071,317.577 75.000 C 318.540 81.309,322.672 85.107,330.133 86.542 C 332.495 86.996,343.192 87.099,346.583 86.701 C 349.349 86.375,355.349 85.373,356.883 84.979 L 357.516 84.816 357.453 69.033 C 357.388 52.748,357.339 51.557,356.681 50.083 C 356.599 49.900,356.293 49.038,356.001 48.167 C 354.863 44.770,352.447 41.961,349.708 40.847 C 349.410 40.725,349.167 40.568,349.167 40.498 C 349.167 40.111,345.655 39.052,343.083 38.663 C 341.071 38.358,334.488 38.219,332.583 38.442 M382.917 38.772 C 380.145 39.050,374.236 40.192,374.000 40.496 C 373.954 40.555,373.279 40.770,372.500 40.973 C 371.721 41.177,370.633 41.482,370.083 41.653 L 369.083 41.962 369.041 63.981 L 368.999 86.000 375.666 86.000 L 382.333 86.000 382.333 68.333 C 382.333 58.617,382.390 50.665,382.458 50.664 C 382.527 50.662,383.296 50.551,384.167 50.417 C 386.922 49.992,392.488 50.201,393.833 50.780 C 394.664 51.138,397.012 51.602,397.143 51.434 C 397.320 51.207,399.405 40.349,399.293 40.237 C 399.136 40.080,395.889 39.340,394.167 39.068 C 392.491 38.804,384.656 38.598,382.917 38.772 M92.306 50.159 C 94.792 51.319,97.000 54.853,97.000 57.675 L 97.000 58.167 88.569 58.167 L 80.137 58.167 80.256 57.458 C 80.802 54.184,82.560 51.426,84.857 50.238 C 86.705 49.282,90.344 49.244,92.306 50.159 M233.891 50.300 C 237.147 51.760,239.437 55.578,239.691 59.969 C 239.714 60.364,239.793 60.725,239.867 60.771 C 239.940 60.816,240.000 61.669,240.000 62.667 C 240.000 63.664,239.940 64.517,239.867 64.563 C 239.793 64.608,239.714 64.969,239.692 65.364 C 239.516 68.420,238.149 71.743,236.352 73.485 C 232.811 76.919,227.171 76.423,224.234 72.420 C 223.830 71.868,223.435 71.338,223.358 71.242 C 221.907 69.448,221.104 62.412,221.895 58.421 C 222.169 57.038,223.071 54.360,223.328 54.167 C 223.389 54.121,223.669 53.744,223.951 53.330 C 224.410 52.655,225.261 51.799,226.310 50.956 C 227.710 49.832,232.016 49.459,233.891 50.300 M180.799 50.264 C 181.505 50.409,182.665 50.796,183.375 51.124 L 184.667 51.720 184.667 63.519 L 184.667 75.318 184.042 75.451 C 182.499 75.778,176.649 75.606,175.471 75.199 C 170.356 73.431,167.533 66.317,168.812 58.417 C 169.868 51.893,174.244 48.916,180.799 50.264 M343.958 66.432 L 344.500 66.538 344.500 71.421 L 344.500 76.303 343.125 76.418 C 334.407 77.143,330.771 75.672,330.766 71.417 C 330.762 68.524,332.304 66.963,335.793 66.328 C 336.638 66.174,343.055 66.256,343.958 66.432 " stroke="none" fill="#00aeef" fill-rule="evenodd"></path><path id="path4" d="" stroke="none" fill="#00ffff" fill-rule="evenodd"></path></g></svg>