<?xml version="1.0" encoding="UTF-8" standalone="no"?>
<!-- Created with Inkscape (http://www.inkscape.org/) -->

<svg
   xmlns:dc="http://purl.org/dc/elements/1.1/"
   xmlns:cc="http://creativecommons.org/ns#"
   xmlns:rdf="http://www.w3.org/1999/02/22-rdf-syntax-ns#"
   xmlns:svg="http://www.w3.org/2000/svg"
   xmlns="http://www.w3.org/2000/svg"
   xmlns:sodipodi="http://sodipodi.sourceforge.net/DTD/sodipodi-0.dtd"
   xmlns:inkscape="http://www.inkscape.org/namespaces/inkscape"
   id="svg2"
   version="1.1"
   inkscape:version="0.91 r13725"
   xml:space="preserve"
   width="260.24826"
   height="149.23041"
   viewBox="0 0 260.24826 149.23041"
   sodipodi:docname="logo.svg"><metadata
     id="metadata8"><rdf:RDF><cc:Work
         rdf:about=""><dc:format>image/svg+xml</dc:format><dc:type
           rdf:resource="http://purl.org/dc/dcmitype/StillImage" /><dc:title></dc:title></cc:Work></rdf:RDF></metadata><defs
     id="defs6"><clipPath
       clipPathUnits="userSpaceOnUse"
       id="clipPath18"><path
         d="m 1192.5,1027.5 1190,0 0,1190 -1190,0 0,-1190 z"
         id="path20"
         inkscape:connector-curvature="0" /></clipPath><clipPath
       clipPathUnits="userSpaceOnUse"
       id="clipPath32"><path
         d="m 1929.12,1807.54 c 5.53,5.52 14.47,5.52 20,0 5.49,-5.51 5.49,-14.47 0,-20.02 -5.53,-5.5 -14.47,-5.5 -20,0 -5.51,5.55 -5.51,14.51 0,20.02 z"
         id="path34"
         inkscape:connector-curvature="0" /></clipPath><radialGradient
       fx="0"
       fy="0"
       cx="0"
       cy="0"
       r="1"
       gradientUnits="userSpaceOnUse"
       gradientTransform="matrix(0,391.751,-391.751,0,1750.01,1665.57)"
       spreadMethod="pad"
       id="radialGradient36"><stop
         style="stop-opacity:1;stop-color:#4dc6f4"
         offset="0"
         id="stop38" /><stop
         style="stop-opacity:1;stop-color:#4dc6f4"
         offset="0.25"
         id="stop40" /><stop
         style="stop-opacity:1;stop-color:#0085bc"
         offset="1"
         id="stop42" /></radialGradient><clipPath
       clipPathUnits="userSpaceOnUse"
       id="clipPath50"><path
         d="m 2051.99,1807.54 c 5.51,5.52 14.46,5.52 19.96,0 5.54,-5.51 5.54,-14.47 0,-20.02 -5.5,-5.5 -14.45,-5.5 -19.96,0 -5.51,5.55 -5.51,14.51 0,20.02 z"
         id="path52"
         inkscape:connector-curvature="0" /></clipPath><radialGradient
       fx="0"
       fy="0"
       cx="0"
       cy="0"
       r="1"
       gradientUnits="userSpaceOnUse"
       gradientTransform="matrix(0,391.54,-391.54,0,1750.18,1665.57)"
       spreadMethod="pad"
       id="radialGradient54"><stop
         style="stop-opacity:1;stop-color:#4dc6f4"
         offset="0"
         id="stop56" /><stop
         style="stop-opacity:1;stop-color:#4dc6f4"
         offset="0.25"
         id="stop58" /><stop
         style="stop-opacity:1;stop-color:#0085bc"
         offset="1"
         id="stop60" /></radialGradient><clipPath
       clipPathUnits="userSpaceOnUse"
       id="clipPath68"><path
         d="m 1448.01,1523.75 c -5.51,-5.51 -14.49,-5.51 -20,0 -5.51,5.51 -5.51,14.49 0,20 5.51,5.53 14.49,5.53 20,0 5.53,-5.51 5.53,-14.49 0,-20 z"
         id="path70"
         inkscape:connector-curvature="0" /></clipPath><radialGradient
       fx="0"
       fy="0"
       cx="0"
       cy="0"
       r="1"
       gradientUnits="userSpaceOnUse"
       gradientTransform="matrix(0,391.821,-391.821,0,1750.11,1665.72)"
       spreadMethod="pad"
       id="radialGradient72"><stop
         style="stop-opacity:1;stop-color:#4dc6f4"
         offset="0"
         id="stop74" /><stop
         style="stop-opacity:1;stop-color:#4dc6f4"
         offset="0.25"
         id="stop76" /><stop
         style="stop-opacity:1;stop-color:#0085bc"
         offset="1"
         id="stop78" /></radialGradient><clipPath
       clipPathUnits="userSpaceOnUse"
       id="clipPath86"><path
         d="m 1570.88,1523.75 c -5.51,-5.51 -14.49,-5.51 -20,0 -5.51,5.51 -5.51,14.49 0,20 5.51,5.53 14.49,5.53 20,0 5.51,-5.51 5.51,-14.49 0,-20 z"
         id="path88"
         inkscape:connector-curvature="0" /></clipPath><radialGradient
       fx="0"
       fy="0"
       cx="0"
       cy="0"
       r="1"
       gradientUnits="userSpaceOnUse"
       gradientTransform="matrix(0,391.71,-391.71,0,1750,1665.72)"
       spreadMethod="pad"
       id="radialGradient90"><stop
         style="stop-opacity:1;stop-color:#4dc6f4"
         offset="0"
         id="stop92" /><stop
         style="stop-opacity:1;stop-color:#4dc6f4"
         offset="0.25"
         id="stop94" /><stop
         style="stop-opacity:1;stop-color:#0085bc"
         offset="1"
         id="stop96" /></radialGradient><clipPath
       clipPathUnits="userSpaceOnUse"
       id="clipPath104"><path
         d="m 1693.73,1523.75 c -5.49,-5.51 -14.47,-5.51 -20,0 -5.51,5.51 -5.51,14.49 0,20 5.53,5.53 14.51,5.53 20,0 5.51,-5.51 5.51,-14.49 0,-20 z"
         id="path106"
         inkscape:connector-curvature="0" /></clipPath><radialGradient
       fx="0"
       fy="0"
       cx="0"
       cy="0"
       r="1"
       gradientUnits="userSpaceOnUse"
       gradientTransform="matrix(0,391.776,-391.776,0,1750,1665.7)"
       spreadMethod="pad"
       id="radialGradient108"><stop
         style="stop-opacity:1;stop-color:#4dc6f4"
         offset="0"
         id="stop110" /><stop
         style="stop-opacity:1;stop-color:#4dc6f4"
         offset="0.25"
         id="stop112" /><stop
         style="stop-opacity:1;stop-color:#0085bc"
         offset="1"
         id="stop114" /></radialGradient><clipPath
       clipPathUnits="userSpaceOnUse"
       id="clipPath122"><path
         d="m 1806.25,1807.54 c 5.53,5.52 14.49,5.52 20,0 5.51,-5.51 5.51,-14.47 0,-20.02 -5.51,-5.5 -14.47,-5.5 -20,0 -5.53,5.55 -5.53,14.51 0,20.02 z"
         id="path124"
         inkscape:connector-curvature="0" /></clipPath><radialGradient
       fx="0"
       fy="0"
       cx="0"
       cy="0"
       r="1"
       gradientUnits="userSpaceOnUse"
       gradientTransform="matrix(0,391.823,-391.823,0,1749.98,1665.59)"
       spreadMethod="pad"
       id="radialGradient126"><stop
         style="stop-opacity:1;stop-color:#4dc6f4"
         offset="0"
         id="stop128" /><stop
         style="stop-opacity:1;stop-color:#4dc6f4"
         offset="0.25"
         id="stop130" /><stop
         style="stop-opacity:1;stop-color:#0085bc"
         offset="1"
         id="stop132" /></radialGradient><clipPath
       clipPathUnits="userSpaceOnUse"
       id="clipPath140"><path
         d="m 2141.68,1927.77 0,-173.91 -37.87,37.84 c 1.76,12.73 -2.07,26.07 -11.84,35.84 -16.54,16.52 -43.43,16.52 -59.98,0 -16.54,-16.54 -16.54,-43.46 0,-60.01 9.75,-9.76 23.13,-13.57 35.84,-11.84 l 73.85,-73.83 0,-50.87 -160.72,160.71 c 1.77,12.73 -2.09,26.07 -11.84,35.84 -16.56,16.52 -43.46,16.52 -60,0 -16.54,-16.54 -16.54,-43.46 0,-60.01 9.77,-9.76 23.13,-13.57 35.84,-11.84 l 196.72,-196.7 0,-50.87 -283.61,283.58 c 1.79,12.7 -2.05,26.07 -11.82,35.84 -16.54,16.52 -43.46,16.52 -60,0 -16.52,-16.54 -16.52,-43.46 0,-60.01 9.79,-9.76 23.14,-13.57 35.86,-11.84 l 319.57,-319.57 0,-32.6 c 0,-71.55 -58.01,-129.55 -129.55,-129.55 l -524.24,0 c -71.56,0 -129.55,58 -129.55,129.55 l 0,173.91 37.85,-37.83 c -1.78,-12.73 2.07,-26.08 11.82,-35.84 16.54,-16.53 43.45,-16.53 60,0 16.52,16.54 16.52,43.46 0,60 -9.77,9.76 -23.13,13.58 -35.85,11.83 l -73.82,73.81 0,50.9 160.7,-160.71 c -1.75,-12.72 2.07,-26.07 11.84,-35.83 16.54,-16.53 43.46,-16.53 60,0 16.54,16.54 16.54,43.46 0,60 -9.77,9.76 -23.13,13.58 -35.84,11.83 l -196.7,196.68 0,50.89 283.55,-283.57 c -1.75,-12.72 2.07,-26.07 11.86,-35.83 16.54,-16.53 43.46,-16.53 59.98,0 16.52,16.54 16.52,43.46 0,60 -9.77,9.76 -23.1,13.58 -35.84,11.83 l -319.55,319.55 0,32.63 c 0,71.55 57.99,129.55 129.55,129.55 l 524.24,0 c 71.54,0 129.55,-58 129.55,-129.55 z"
         id="path142"
         inkscape:connector-curvature="0" /></clipPath><radialGradient
       fx="0"
       fy="0"
       cx="0"
       cy="0"
       r="1"
       gradientUnits="userSpaceOnUse"
       gradientTransform="matrix(0,391.673,-391.673,0,1750.01,1665.64)"
       spreadMethod="pad"
       id="radialGradient144"><stop
         style="stop-opacity:1;stop-color:#4dc6f4"
         offset="0"
         id="stop146" /><stop
         style="stop-opacity:1;stop-color:#4dc6f4"
         offset="0.25"
         id="stop148" /><stop
         style="stop-opacity:1;stop-color:#0085bc"
         offset="1"
         id="stop150" /></radialGradient><clipPath
       clipPathUnits="userSpaceOnUse"
       id="clipPath158"><path
         d="m 1448.01,1543.75 c 5.53,-5.51 5.53,-14.49 0,-20 -5.51,-5.51 -14.49,-5.51 -20,0 -5.51,5.51 -5.51,14.49 0,20 5.51,5.53 14.49,5.53 20,0 z"
         id="path160"
         inkscape:connector-curvature="0" /></clipPath><radialGradient
       fx="0"
       fy="0"
       cx="0"
       cy="0"
       r="1"
       gradientUnits="userSpaceOnUse"
       gradientTransform="matrix(0,14.1382,-14.1382,0,1438.01,1533.76)"
       spreadMethod="pad"
       id="radialGradient162"><stop
         style="stop-opacity:1;stop-color:#4dc6f4"
         offset="0"
         id="stop164" /><stop
         style="stop-opacity:1;stop-color:#4dc6f4"
         offset="0.25"
         id="stop166" /><stop
         style="stop-opacity:1;stop-color:#0085bc"
         offset="1"
         id="stop168" /></radialGradient><clipPath
       clipPathUnits="userSpaceOnUse"
       id="clipPath176"><path
         d="m 1570.88,1543.75 c 5.51,-5.51 5.51,-14.49 0,-20 -5.51,-5.51 -14.49,-5.51 -20,0 -5.51,5.51 -5.51,14.49 0,20 5.51,5.53 14.49,5.53 20,0 z"
         id="path178"
         inkscape:connector-curvature="0" /></clipPath><radialGradient
       fx="0"
       fy="0"
       cx="0"
       cy="0"
       r="1"
       gradientUnits="userSpaceOnUse"
       gradientTransform="matrix(0,14.1334,-14.1334,0,1560.88,1533.76)"
       spreadMethod="pad"
       id="radialGradient180"><stop
         style="stop-opacity:1;stop-color:#4dc6f4"
         offset="0"
         id="stop182" /><stop
         style="stop-opacity:1;stop-color:#4dc6f4"
         offset="0.25"
         id="stop184" /><stop
         style="stop-opacity:1;stop-color:#0085bc"
         offset="1"
         id="stop186" /></radialGradient><clipPath
       clipPathUnits="userSpaceOnUse"
       id="clipPath194"><path
         d="m 1693.73,1543.75 c 5.51,-5.51 5.51,-14.49 0,-20 -5.49,-5.51 -14.47,-5.51 -20,0 -5.51,5.51 -5.51,14.49 0,20 5.53,5.53 14.51,5.53 20,0 z"
         id="path196"
         inkscape:connector-curvature="0" /></clipPath><radialGradient
       fx="0"
       fy="0"
       cx="0"
       cy="0"
       r="1"
       gradientUnits="userSpaceOnUse"
       gradientTransform="matrix(0,14.1334,-14.1334,0,1683.73,1533.76)"
       spreadMethod="pad"
       id="radialGradient198"><stop
         style="stop-opacity:1;stop-color:#4dc6f4"
         offset="0"
         id="stop200" /><stop
         style="stop-opacity:1;stop-color:#4dc6f4"
         offset="0.25"
         id="stop202" /><stop
         style="stop-opacity:1;stop-color:#0085bc"
         offset="1"
         id="stop204" /></radialGradient><clipPath
       clipPathUnits="userSpaceOnUse"
       id="clipPath212"><path
         d="m 2051.99,1787.52 c -5.51,5.55 -5.51,14.51 0,20.02 5.51,5.52 14.46,5.52 19.96,0 5.54,-5.51 5.54,-14.47 0,-20.02 -5.5,-5.5 -14.45,-5.5 -19.96,0 z"
         id="path214"
         inkscape:connector-curvature="0" /></clipPath><radialGradient
       fx="0"
       fy="0"
       cx="0"
       cy="0"
       r="1"
       gradientUnits="userSpaceOnUse"
       gradientTransform="matrix(0,14.131,-14.131,0,2061.99,1797.54)"
       spreadMethod="pad"
       id="radialGradient216"><stop
         style="stop-opacity:1;stop-color:#4dc6f4"
         offset="0"
         id="stop218" /><stop
         style="stop-opacity:1;stop-color:#4dc6f4"
         offset="0.25"
         id="stop220" /><stop
         style="stop-opacity:1;stop-color:#0085bc"
         offset="1"
         id="stop222" /></radialGradient><clipPath
       clipPathUnits="userSpaceOnUse"
       id="clipPath230"><path
         d="m 1929.12,1787.52 c -5.51,5.55 -5.51,14.51 0,20.02 5.53,5.52 14.47,5.52 20,0 5.49,-5.51 5.49,-14.47 0,-20.02 -5.53,-5.5 -14.47,-5.5 -20,0 z"
         id="path232"
         inkscape:connector-curvature="0" /></clipPath><radialGradient
       fx="0"
       fy="0"
       cx="0"
       cy="0"
       r="1"
       gradientUnits="userSpaceOnUse"
       gradientTransform="matrix(0,14.131,-14.131,0,1939.11,1797.54)"
       spreadMethod="pad"
       id="radialGradient234"><stop
         style="stop-opacity:1;stop-color:#4dc6f4"
         offset="0"
         id="stop236" /><stop
         style="stop-opacity:1;stop-color:#4dc6f4"
         offset="0.25"
         id="stop238" /><stop
         style="stop-opacity:1;stop-color:#0085bc"
         offset="1"
         id="stop240" /></radialGradient><clipPath
       clipPathUnits="userSpaceOnUse"
       id="clipPath248"><path
         d="m 1806.25,1787.52 c -5.53,5.55 -5.53,14.51 0,20.02 5.53,5.52 14.49,5.52 20,0 5.51,-5.51 5.51,-14.47 0,-20.02 -5.51,-5.5 -14.47,-5.5 -20,0 z"
         id="path250"
         inkscape:connector-curvature="0" /></clipPath><radialGradient
       fx="0"
       fy="0"
       cx="0"
       cy="0"
       r="1"
       gradientUnits="userSpaceOnUse"
       gradientTransform="matrix(0,14.1382,-14.1382,0,1816.24,1797.54)"
       spreadMethod="pad"
       id="radialGradient252"><stop
         style="stop-opacity:1;stop-color:#4dc6f4"
         offset="0"
         id="stop254" /><stop
         style="stop-opacity:1;stop-color:#4dc6f4"
         offset="0.25"
         id="stop256" /><stop
         style="stop-opacity:1;stop-color:#0085bc"
         offset="1"
         id="stop258" /></radialGradient></defs><sodipodi:namedview
     pagecolor="#ffffff"
     bordercolor="#666666"
     borderopacity="1"
     objecttolerance="10"
     gridtolerance="10"
     guidetolerance="10"
     inkscape:pageopacity="0"
     inkscape:pageshadow="2"
     inkscape:window-width="1920"
     inkscape:window-height="1028"
     id="namedview4"
     showgrid="false"
     fit-margin-top="0"
     fit-margin-left="0"
     fit-margin-right="0"
     fit-margin-bottom="0"
     inkscape:zoom="1.907168"
     inkscape:cx="48.55228"
     inkscape:cy="109.38369"
     inkscape:window-x="0"
     inkscape:window-y="24"
     inkscape:window-maximized="1"
     inkscape:current-layer="g12" /><g
     id="g10"
     inkscape:groupmode="layer"
     inkscape:label="ink_ext_XXXXXX"
     transform="matrix(1.25,0,0,-1.25,-88.6255,240.91053)"><g
       id="g12"
       transform="scale(0.1,0.1)"><g
         id="g28"
         transform="translate(-16.778805,-130.03574)"><g
           id="g30"
           clip-path="url(#clipPath32)"><path
             d="m 1929.12,1807.54 c 5.53,5.52 14.47,5.52 20,0 5.49,-5.51 5.49,-14.47 0,-20.02 -5.53,-5.5 -14.47,-5.5 -20,0 -5.51,5.55 -5.51,14.51 0,20.02"
             style="fill:url(#radialGradient36);fill-opacity:1;fill-rule:nonzero;stroke:none"
             id="path44"
             inkscape:connector-curvature="0" /></g></g><g
         id="g46"
         transform="translate(-16.778805,-130.03574)"><g
           id="g48"
           clip-path="url(#clipPath50)"><path
             d="m 2051.99,1807.54 c 5.51,5.52 14.46,5.52 19.96,0 5.54,-5.51 5.54,-14.47 0,-20.02 -5.5,-5.5 -14.45,-5.5 -19.96,0 -5.51,5.55 -5.51,14.51 0,20.02"
             style="fill:url(#radialGradient54);fill-opacity:1;fill-rule:nonzero;stroke:none"
             id="path62"
             inkscape:connector-curvature="0" /></g></g><g
         id="g64"
         transform="translate(-16.778805,-130.03574)"><g
           id="g66"
           clip-path="url(#clipPath68)"><path
             d="m 1448.01,1523.75 c -5.51,-5.51 -14.49,-5.51 -20,0 -5.51,5.51 -5.51,14.49 0,20 5.51,5.53 14.49,5.53 20,0 5.53,-5.51 5.53,-14.49 0,-20"
             style="fill:url(#radialGradient72);fill-opacity:1;fill-rule:nonzero;stroke:none"
             id="path80"
             inkscape:connector-curvature="0" /></g></g><g
         id="g82"
         transform="translate(-16.778805,-130.03574)"><g
           id="g84"
           clip-path="url(#clipPath86)"><path
             d="m 1570.88,1523.75 c -5.51,-5.51 -14.49,-5.51 -20,0 -5.51,5.51 -5.51,14.49 0,20 5.51,5.53 14.49,5.53 20,0 5.51,-5.51 5.51,-14.49 0,-20"
             style="fill:url(#radialGradient90);fill-opacity:1;fill-rule:nonzero;stroke:none"
             id="path98"
             inkscape:connector-curvature="0" /></g></g><g
         id="g100"
         transform="translate(-16.778805,-130.03574)"><g
           id="g102"
           clip-path="url(#clipPath104)"><path
             d="m 1693.73,1523.75 c -5.49,-5.51 -14.47,-5.51 -20,0 -5.51,5.51 -5.51,14.49 0,20 5.53,5.53 14.51,5.53 20,0 5.51,-5.51 5.51,-14.49 0,-20"
             style="fill:url(#radialGradient108);fill-opacity:1;fill-rule:nonzero;stroke:none"
             id="path116"
             inkscape:connector-curvature="0" /></g></g><g
         id="g118"
         transform="translate(-16.778805,-130.03574)"><g
           id="g120"
           clip-path="url(#clipPath122)"><path
             d="m 1806.25,1807.54 c 5.53,5.52 14.49,5.52 20,0 5.51,-5.51 5.51,-14.47 0,-20.02 -5.51,-5.5 -14.47,-5.5 -20,0 -5.53,5.55 -5.53,14.51 0,20.02"
             style="fill:url(#radialGradient126);fill-opacity:1;fill-rule:nonzero;stroke:none"
             id="path134"
             inkscape:connector-curvature="0" /></g></g><g
         id="g136"
         transform="translate(-16.778805,-130.03574)"><g
           id="g138"
           clip-path="url(#clipPath140)"><path
             d="m 2141.68,1927.77 0,-173.91 -37.87,37.84 c 1.76,12.73 -2.07,26.07 -11.84,35.84 -16.54,16.52 -43.43,16.52 -59.98,0 -16.54,-16.54 -16.54,-43.46 0,-60.01 9.75,-9.76 23.13,-13.57 35.84,-11.84 l 73.85,-73.83 0,-50.87 -160.72,160.71 c 1.77,12.73 -2.09,26.07 -11.84,35.84 -16.56,16.52 -43.46,16.52 -60,0 -16.54,-16.54 -16.54,-43.46 0,-60.01 9.77,-9.76 23.13,-13.57 35.84,-11.84 l 196.72,-196.7 0,-50.87 -283.61,283.58 c 1.79,12.7 -2.05,26.07 -11.82,35.84 -16.54,16.52 -43.46,16.52 -60,0 -16.52,-16.54 -16.52,-43.46 0,-60.01 9.79,-9.76 23.14,-13.57 35.86,-11.84 l 319.57,-319.57 0,-32.6 c 0,-71.55 -58.01,-129.55 -129.55,-129.55 l -524.24,0 c -71.56,0 -129.55,58 -129.55,129.55 l 0,173.91 37.85,-37.83 c -1.78,-12.73 2.07,-26.08 11.82,-35.84 16.54,-16.53 43.45,-16.53 60,0 16.52,16.54 16.52,43.46 0,60 -9.77,9.76 -23.13,13.58 -35.85,11.83 l -73.82,73.81 0,50.9 160.7,-160.71 c -1.75,-12.72 2.07,-26.07 11.84,-35.83 16.54,-16.53 43.46,-16.53 60,0 16.54,16.54 16.54,43.46 0,60 -9.77,9.76 -23.13,13.58 -35.84,11.83 l -196.7,196.68 0,50.89 283.55,-283.57 c -1.75,-12.72 2.07,-26.07 11.86,-35.83 16.54,-16.53 43.46,-16.53 59.98,0 16.52,16.54 16.52,43.46 0,60 -9.77,9.76 -23.1,13.58 -35.84,11.83 l -319.55,319.55 0,32.63 c 0,71.55 57.99,129.55 129.55,129.55 l 524.24,0 c 71.54,0 129.55,-58 129.55,-129.55"
             style="fill:url(#radialGradient144);fill-opacity:1;fill-rule:nonzero;stroke:none"
             id="path152"
             inkscape:connector-curvature="0" /></g></g><g
         id="g154"
         transform="translate(-16.778805,-130.03574)"><g
           id="g156"
           clip-path="url(#clipPath158)"><path
             d="m 1448.01,1543.75 c 5.53,-5.51 5.53,-14.49 0,-20 -5.51,-5.51 -14.49,-5.51 -20,0 -5.51,5.51 -5.51,14.49 0,20 5.51,5.53 14.49,5.53 20,0"
             style="fill:url(#radialGradient162);fill-opacity:1;fill-rule:nonzero;stroke:none"
             id="path170"
             inkscape:connector-curvature="0" /></g></g><g
         id="g172"
         transform="translate(-16.778805,-130.03574)"><g
           id="g174"
           clip-path="url(#clipPath176)"><path
             d="m 1570.88,1543.75 c 5.51,-5.51 5.51,-14.49 0,-20 -5.51,-5.51 -14.49,-5.51 -20,0 -5.51,5.51 -5.51,14.49 0,20 5.51,5.53 14.49,5.53 20,0"
             style="fill:url(#radialGradient180);fill-opacity:1;fill-rule:nonzero;stroke:none"
             id="path188"
             inkscape:connector-curvature="0" /></g></g><g
         id="g190"
         transform="translate(-16.778805,-130.03574)"><g
           id="g192"
           clip-path="url(#clipPath194)"><path
             d="m 1693.73,1543.75 c 5.51,-5.51 5.51,-14.49 0,-20 -5.49,-5.51 -14.47,-5.51 -20,0 -5.51,5.51 -5.51,14.49 0,20 5.53,5.53 14.51,5.53 20,0"
             style="fill:url(#radialGradient198);fill-opacity:1;fill-rule:nonzero;stroke:none"
             id="path206"
             inkscape:connector-curvature="0" /></g></g><g
         id="g208"
         transform="translate(-16.778805,-130.03574)"><g
           id="g210"
           clip-path="url(#clipPath212)"><path
             d="m 2051.99,1787.52 c -5.51,5.55 -5.51,14.51 0,20.02 5.51,5.52 14.46,5.52 19.96,0 5.54,-5.51 5.54,-14.47 0,-20.02 -5.5,-5.5 -14.45,-5.5 -19.96,0"
             style="fill:url(#radialGradient216);fill-opacity:1;fill-rule:nonzero;stroke:none"
             id="path224"
             inkscape:connector-curvature="0" /></g></g><g
         id="g226"
         transform="translate(-16.778805,-130.03574)"><g
           id="g228"
           clip-path="url(#clipPath230)"><path
             d="m 1929.12,1787.52 c -5.51,5.55 -5.51,14.51 0,20.02 5.53,5.52 14.47,5.52 20,0 5.49,-5.51 5.49,-14.47 0,-20.02 -5.53,-5.5 -14.47,-5.5 -20,0"
             style="fill:url(#radialGradient234);fill-opacity:1;fill-rule:nonzero;stroke:none"
             id="path242"
             inkscape:connector-curvature="0" /></g></g><g
         id="g244"
         transform="translate(-16.778805,-130.03574)"><g
           id="g246"
           clip-path="url(#clipPath248)"><path
             d="m 1806.25,1787.52 c -5.53,5.55 -5.53,14.51 0,20.02 5.53,5.52 14.49,5.52 20,0 5.51,-5.51 5.51,-14.47 0,-20.02 -5.51,-5.5 -14.47,-5.5 -20,0"
             style="fill:url(#radialGradient252);fill-opacity:1;fill-rule:nonzero;stroke:none"
             id="path260"
             inkscape:connector-curvature="0" /></g></g><path
         d="m 761.66,846.23 c 2.324,-4 5.293,-7.289 8.953,-9.832 3.625,-2.539 7.832,-4.437 12.563,-5.648 4.746,-1.219 9.668,-1.828 14.754,-1.828 3.64,0 7.461,0.418 11.472,1.277 4.036,0.852 7.676,2.192 10.95,4 3.269,1.84 6.003,4.27 8.195,7.301 2.183,3.02 3.269,6.871 3.269,11.48 0,7.77 -5.156,13.602 -15.476,17.489 -10.324,3.883 -24.719,7.769 -43.203,11.66 -7.5,1.691 -14.875,3.711 -22.032,6.012 -7.179,2.308 -13.546,5.347 -19.14,9.129 -5.578,3.75 -10.078,8.48 -13.488,14.191 -3.399,5.719 -5.098,12.699 -5.098,20.961 0,12.148 2.391,22.129 7.09,29.879 4.773,7.777 11.015,13.91 18.801,18.41 7.761,4.5 16.523,7.648 26.226,9.469 9.719,1.84 19.672,2.742 29.875,2.742 10.215,0 20.125,-0.981 29.707,-2.934 9.602,-1.929 18.164,-5.218 25.715,-9.816 7.52,-4.613 13.758,-10.762 18.75,-18.402 4.961,-7.661 7.957,-17.321 8.934,-28.981 l -49.2,0 c -0.73,9.949 -4.504,16.711 -11.289,20.231 -6.804,3.519 -14.836,5.269 -24.062,5.269 -2.91,0 -6.074,-0.18 -9.473,-0.539 -3.406,-0.371 -6.504,-1.16 -9.308,-2.359 -2.79,-1.219 -5.157,-2.993 -7.086,-5.289 -1.973,-2.321 -2.93,-5.403 -2.93,-9.293 0,-4.618 1.695,-8.387 5.098,-11.289 3.406,-2.93 7.832,-5.29 13.308,-7.122 5.469,-1.82 11.731,-3.437 18.778,-4.918 7.023,-1.441 14.203,-3.039 21.488,-4.75 7.515,-1.691 14.89,-3.761 22.066,-6.191 7.129,-2.418 13.528,-5.629 19.121,-9.648 5.598,-4.012 10.078,-8.993 13.489,-14.95 3.378,-5.953 5.086,-13.293 5.086,-22.031 0,-12.398 -2.489,-22.781 -7.477,-31.172 -4.965,-8.386 -11.469,-15.109 -19.465,-20.207 -8.047,-5.121 -17.219,-8.711 -27.512,-10.761 -10.339,-2.071 -20.855,-3.11 -31.543,-3.11 -10.925,0 -21.621,1.09 -32.07,3.281 -10.445,2.2 -19.742,5.848 -27.879,10.938 -8.144,5.101 -14.804,11.84 -20.051,20.211 -5.222,8.39 -8.062,18.898 -8.562,31.531 l 49.211,0 c 0,-5.582 1.148,-10.383 3.445,-14.391"
         style="fill:#231f20;fill-opacity:1;fill-rule:nonzero;stroke:none"
         id="path262"
         inkscape:connector-curvature="0" /><path
         d="m 955,987.82 0,-25.519 0.723,0 c 6.804,9.711 15,17.269 24.597,22.597 9.614,5.34 20.6,8.024 32.98,8.024 11.91,0 22.78,-2.313 32.63,-6.922 9.82,-4.621 17.29,-12.762 22.41,-24.418 5.58,8.238 13.18,15.539 22.76,21.879 9.61,6.309 20.97,9.461 34.09,9.461 9.97,0 19.19,-1.223 27.68,-3.652 8.53,-2.43 15.81,-6.321 21.88,-11.649 6.09,-5.351 10.8,-12.332 14.21,-20.949 3.41,-8.633 5.1,-19.012 5.1,-31.16 l 0,-126.114 -51.75,0 0,106.793 c 0,6.309 -0.23,12.25 -0.71,17.848 -0.5,5.59 -1.84,10.441 -4.01,14.57 -2.19,4.129 -5.42,7.422 -9.67,9.852 -4.27,2.418 -10.04,3.648 -17.3,3.648 -7.29,0 -13.21,-1.418 -17.69,-4.199 -4.49,-2.789 -8.03,-6.449 -10.56,-10.941 -2.56,-4.481 -4.24,-9.598 -5.11,-15.297 -0.85,-5.703 -1.26,-11.461 -1.26,-17.313 l 0,-104.961 -51.75,0 0,105.704 c 0,5.57 -0.13,11.097 -0.37,16.57 -0.26,5.469 -1.28,10.508 -3.1,15.117 -1.82,4.633 -4.86,8.332 -9.11,11.121 -4.25,2.781 -10.51,4.199 -18.772,4.199 -2.429,0 -5.632,-0.55 -9.668,-1.64 -3.992,-1.098 -7.886,-3.16 -11.636,-6.199 -3.781,-3.04 -6.985,-7.418 -9.68,-13.122 -2.668,-5.707 -3.984,-13.179 -3.984,-22.41 l 0,-109.34 -51.77,0 0,188.422 48.84,0"
         style="fill:#231f20;fill-opacity:1;fill-rule:nonzero;stroke:none"
         id="path264"
         inkscape:connector-curvature="0" /><path
         d="m 1325.44,887.051 c -3.27,-1.082 -6.83,-2 -10.58,-2.723 -3.77,-0.738 -7.71,-1.34 -11.83,-1.828 -4.14,-0.5 -8.28,-1.09 -12.4,-1.84 -3.88,-0.719 -7.72,-1.699 -11.47,-2.898 -3.8,-1.231 -7.07,-2.864 -9.84,-4.922 -2.81,-2.07 -5.05,-4.68 -6.77,-7.828 -1.69,-3.16 -2.54,-7.18 -2.54,-12.032 0,-4.609 0.85,-8.511 2.54,-11.66 1.72,-3.179 4.01,-5.66 6.94,-7.461 2.9,-1.839 6.31,-3.109 10.21,-3.839 3.88,-0.739 7.87,-1.098 12.01,-1.098 10.21,0 18.1,1.699 23.7,5.09 5.57,3.418 9.71,7.488 12.39,12.218 2.65,4.739 4.3,9.551 4.92,14.391 0.59,4.867 0.92,8.758 0.92,11.668 l 0,19.313 c -2.21,-1.93 -4.92,-3.461 -8.2,-4.551 z m -102.24,73.07 c 5.35,8.008 12.14,14.449 20.4,19.301 8.27,4.867 17.56,8.328 27.9,10.398 10.31,2.059 20.69,3.102 31.16,3.102 9.47,0 19.08,-0.66 28.77,-2 9.71,-1.352 18.6,-3.961 26.6,-7.832 8.04,-3.891 14.59,-9.309 19.7,-16.231 5.1,-6.929 7.63,-16.097 7.63,-27.507 l 0,-98.032 c 0,-8.519 0.51,-16.648 1.48,-24.422 0.95,-7.777 2.66,-13.609 5.09,-17.5 l -52.46,0 c -0.97,2.922 -1.77,5.883 -2.38,8.93 -0.62,3.051 -1.03,6.121 -1.28,9.301 -8.26,-8.508 -17.98,-14.469 -29.16,-17.859 -11.17,-3.399 -22.6,-5.11 -34.26,-5.11 -8.99,0 -17.36,1.09 -25.14,3.281 -7.77,2.2 -14.57,5.598 -20.4,10.2 -5.83,4.629 -10.39,10.449 -13.67,17.5 -3.29,7.05 -4.92,15.418 -4.92,25.14 0,10.707 1.87,19.5 5.64,26.43 3.78,6.93 8.63,12.461 14.6,16.578 5.93,4.133 12.74,7.231 20.4,9.313 7.64,2.058 15.37,3.679 23.12,4.918 7.78,1.191 15.44,2.191 22.96,2.902 7.55,0.726 14.23,1.808 20.06,3.277 5.83,1.449 10.45,3.582 13.85,6.379 3.4,2.781 4.97,6.863 4.75,12.211 0,5.59 -0.92,10.012 -2.75,13.313 -1.81,3.269 -4.23,5.82 -7.29,7.636 -3.03,1.84 -6.55,3.043 -10.55,3.641 -4.04,0.609 -8.33,0.91 -12.95,0.91 -10.19,0 -18.23,-2.187 -24.06,-6.539 -5.82,-4.398 -9.21,-11.66 -10.19,-21.879 l -51.76,0 c 0.72,12.149 3.78,22.238 9.11,30.25"
         style="fill:#231f20;fill-opacity:1;fill-rule:nonzero;stroke:none"
         id="path266"
         inkscape:connector-curvature="0" /><path
         d="m 1456.04,987.82 0,-34.988 0.76,0 c 2.41,5.828 5.7,11.227 9.82,16.207 4.14,4.981 8.87,9.242 14.2,12.77 5.35,3.511 11.06,6.25 17.15,8.179 6.07,1.953 12.4,2.934 18.94,2.934 3.39,0 7.16,-0.613 11.3,-1.82 l 0,-48.114 c -2.43,0.481 -5.35,0.922 -8.74,1.282 -3.4,0.371 -6.67,0.55 -9.86,0.55 -9.47,0 -17.47,-1.59 -24.01,-4.73 -6.58,-3.18 -11.85,-7.481 -15.88,-12.949 -4.01,-5.469 -6.87,-11.852 -8.56,-19.121 -1.72,-7.309 -2.56,-15.2 -2.56,-23.692 l 0,-84.93 -51.72,0 0,188.422 49.16,0"
         style="fill:#231f20;fill-opacity:1;fill-rule:nonzero;stroke:none"
         id="path268"
         inkscape:connector-curvature="0" /><path
         d="m 1652.5,987.82 0,-34.621 -37.89,0 0,-93.289 c 0,-8.762 1.44,-14.59 4.37,-17.5 2.91,-2.91 8.74,-4.371 17.48,-4.371 2.91,0 5.73,0.102 8.39,0.359 2.69,0.25 5.2,0.602 7.65,1.102 l 0,-40.102 c -4.37,-0.718 -9.23,-1.218 -14.57,-1.457 -5.35,-0.23 -10.56,-0.351 -15.67,-0.351 -8.02,0 -15.61,0.539 -22.79,1.629 -7.15,1.101 -13.48,3.23 -18.94,6.383 -5.47,3.136 -9.78,7.66 -12.94,13.48 -3.18,5.828 -4.73,13.496 -4.73,22.957 l 0,111.16 -31.36,0 0,34.621 31.36,0 0,56.48 51.75,0 0,-56.48 37.89,0"
         style="fill:#231f20;fill-opacity:1;fill-rule:nonzero;stroke:none"
         id="path270"
         inkscape:connector-curvature="0" /><path
         d="m 1727.95,987.82 0,-25.519 0.73,0 c 6.79,9.711 14.98,17.269 24.59,22.597 9.63,5.34 20.62,8.024 33,8.024 11.89,0 22.78,-2.313 32.63,-6.922 9.81,-4.621 17.29,-12.762 22.39,-24.418 5.59,8.238 13.18,15.539 22.78,21.879 9.61,6.309 20.95,9.461 34.06,9.461 9.98,0 19.21,-1.223 27.71,-3.652 8.5,-2.43 15.8,-6.321 21.87,-11.649 6.08,-5.351 10.81,-12.332 14.2,-20.949 3.41,-8.633 5.1,-19.012 5.1,-31.16 l 0,-126.114 -51.73,0 0,106.793 c 0,6.309 -0.26,12.25 -0.76,17.848 -0.45,5.59 -1.8,10.441 -3.98,14.57 -2.19,4.129 -5.42,7.422 -9.65,9.852 -4.25,2.418 -10.04,3.648 -17.31,3.648 -7.3,0 -13.2,-1.418 -17.68,-4.199 -4.51,-2.789 -8.03,-6.449 -10.59,-10.941 -2.56,-4.481 -4.25,-9.598 -5.09,-15.297 -0.84,-5.703 -1.26,-11.461 -1.26,-17.313 l 0,-104.961 -51.76,0 0,105.704 c 0,5.57 -0.14,11.097 -0.37,16.57 -0.22,5.469 -1.28,10.508 -3.11,15.117 -1.82,4.633 -4.85,8.332 -9.08,11.121 -4.27,2.781 -10.54,4.199 -18.8,4.199 -2.42,0 -5.63,-0.55 -9.64,-1.64 -3.99,-1.098 -7.9,-3.16 -11.67,-6.199 -3.77,-3.04 -6.98,-7.418 -9.65,-13.122 -2.68,-5.707 -4,-13.179 -4,-22.41 l 0,-109.34 -51.76,0 0,188.422 48.83,0"
         style="fill:#231f20;fill-opacity:1;fill-rule:nonzero;stroke:none"
         id="path272"
         inkscape:connector-curvature="0" /><path
         d="m 2046.84,871.379 c 1.45,-7.168 3.94,-13.598 7.46,-19.309 3.52,-5.711 8.19,-10.269 14.04,-13.672 5.81,-3.398 13.1,-5.097 21.86,-5.097 8.76,0 16.08,1.699 22.02,5.097 5.98,3.403 10.71,7.961 14.24,13.672 3.49,5.711 6.01,12.141 7.47,19.309 1.44,7.16 2.18,14.519 2.18,22.043 0,7.558 -0.74,14.949 -2.18,22.226 -1.46,7.301 -3.98,13.723 -7.47,19.332 -3.53,5.579 -8.26,10.141 -14.24,13.661 -5.94,3.531 -13.26,5.289 -22.02,5.289 -8.76,0 -16.05,-1.758 -21.86,-5.289 -5.85,-3.52 -10.52,-8.082 -14.04,-13.661 -3.52,-5.609 -6.01,-12.031 -7.46,-19.332 -1.46,-7.277 -2.17,-14.668 -2.17,-22.226 0,-7.524 0.71,-14.883 2.17,-22.043 z m -47.05,63.043 c 4.64,12.277 11.19,22.719 19.7,31.348 8.51,8.609 18.69,15.312 30.62,20.039 11.9,4.742 25.28,7.113 40.09,7.113 14.8,0 28.22,-2.371 40.28,-7.113 12.01,-4.727 22.26,-11.43 30.76,-20.039 8.55,-8.629 15.09,-19.071 19.71,-31.348 4.59,-12.274 6.91,-25.922 6.91,-41 0,-15.063 -2.32,-28.66 -6.91,-40.813 -4.62,-12.148 -11.16,-22.55 -19.71,-31.148 -8.5,-8.641 -18.75,-15.25 -30.76,-19.859 -12.06,-4.614 -25.48,-6.942 -40.28,-6.942 -14.81,0 -28.19,2.328 -40.09,6.942 -11.93,4.609 -22.11,11.218 -30.62,19.859 -8.51,8.598 -15.06,19 -19.7,31.148 -4.59,12.153 -6.89,25.75 -6.89,40.813 0,15.078 2.3,28.726 6.89,41"
         style="fill:#231f20;fill-opacity:1;fill-rule:nonzero;stroke:none"
         id="path274"
         inkscape:connector-curvature="0" /><path
         d="m 2261.48,987.82 0,-26.238 1.09,0 c 6.57,10.938 15.07,18.898 25.52,23.879 10.43,4.961 21.11,7.461 32.06,7.461 13.85,0 25.21,-1.883 34.08,-5.641 8.87,-3.781 15.85,-9 20.95,-15.679 5.11,-6.68 8.69,-14.821 10.75,-24.43 2.06,-9.602 3.09,-20.211 3.09,-31.883 l 0,-115.891 -51.74,0 0,106.43 c 0,15.543 -2.43,27.141 -7.29,34.793 -4.85,7.66 -13.49,11.488 -25.86,11.488 -14.09,0 -24.31,-4.199 -30.63,-12.578 -6.31,-8.383 -9.48,-22.179 -9.48,-41.359 l 0,-98.774 -51.74,0 0,188.422 49.2,0"
         style="fill:#231f20;fill-opacity:1;fill-rule:nonzero;stroke:none"
         id="path276"
         inkscape:connector-curvature="0" /><path
         d="m 2533.15,943.719 c -6.2,6.793 -15.63,10.211 -28.25,10.211 -8.26,0 -15.11,-1.391 -20.57,-4.192 -5.48,-2.797 -9.84,-6.269 -13.14,-10.386 -3.27,-4.133 -5.59,-8.5 -6.91,-13.122 -1.35,-4.621 -2.13,-8.75 -2.39,-12.378 l 84.2,0 c -2.45,13.109 -6.73,23.058 -12.94,29.867 z m -58.49,-99.117 c 7.78,-7.543 18.92,-11.301 33.54,-11.301 10.43,0 19.43,2.621 26.97,7.828 7.53,5.23 12.14,10.75 13.85,16.582 l 45.53,0 c -7.26,-22.582 -18.47,-38.75 -33.51,-48.449 -15.07,-9.742 -33.29,-14.602 -54.66,-14.602 -14.83,0 -28.19,2.371 -40.09,7.11 -11.9,4.73 -22,11.492 -30.26,20.242 -8.26,8.738 -14.63,19.168 -19.13,31.316 -4.48,12.16 -6.73,25.531 -6.73,40.094 0,14.078 2.27,27.207 6.91,39.367 4.62,12.152 11.16,22.66 19.69,31.52 8.49,8.871 18.64,15.863 30.44,20.961 11.75,5.089 24.82,7.652 39.17,7.652 16.04,0 30.01,-3.102 41.9,-9.301 11.91,-6.199 21.68,-14.519 29.34,-24.961 7.65,-10.441 13.18,-22.351 16.58,-35.711 3.39,-13.371 4.62,-27.34 3.62,-41.91 l -135.93,0 c 0.76,-16.769 4.99,-28.918 12.77,-36.437"
         style="fill:#231f20;fill-opacity:1;fill-rule:nonzero;stroke:none"
         id="path278"
         inkscape:connector-curvature="0" /><path
         d="m 2688.95,743.27 c -9.96,-6.54 -23.81,-9.829 -41.55,-9.829 -5.33,0 -10.61,0.18 -15.84,0.547 -5.23,0.364 -10.52,0.801 -15.88,1.274 l 0,42.648 c 4.89,-0.488 9.88,-0.988 14.96,-1.461 5.1,-0.488 10.2,-0.59 15.32,-0.367 6.8,0.738 11.85,3.406 15.1,8.008 3.3,4.621 4.95,9.75 4.95,15.308 0,4.141 -0.72,8 -2.21,11.672 l -65.98,176.75 55.05,0 42.62,-129 0.76,0 41.19,129 53.55,0 -78.7,-211.738 c -5.61,-15.301 -13.37,-26.242 -23.34,-32.812"
         style="fill:#231f20;fill-opacity:1;fill-rule:nonzero;stroke:none"
         id="path280"
         inkscape:connector-curvature="0" /></g></g></svg>